<?xml version="1.0" encoding="utf-8"?>
<!-- Generator: Adobe Illustrator 18.1.1, SVG Export Plug-In . SVG Version: 6.00 Build 0)  -->
<svg version="1.1" id="Layer_1" xmlns="http://www.w3.org/2000/svg" xmlns:xlink="http://www.w3.org/1999/xlink" x="0px" y="0px"
	 viewBox="1960 -4.9 1579 569.7" enable-background="new 1960 -4.9 1579 569.7" xml:space="preserve">
<pattern  y="560" width="400" height="400" patternUnits="userSpaceOnUse" id="Dark_Wood_Grain_Horizontal" viewBox="0 -400 400 400" overflow="visible">
	<g>
		<polygon fill="none" points="0,-400 400,-400 400,0 0,0 		"/>
		<g>
			<path fill="#534741" d="M344.6-207.7c-35.4-1.1-70.8-2.1-106.2-3.2l1.3,0.1c-69.4-0.4-138.9-0.9-208.4-1.1
				c-10.3,0-20.9,1.7-31.4,2.6c9.4,1,18.1,2.9,28.1,2.9c117.8,0.9,235.8,1.5,368.8,2.3c-28.1-2.1-41.5-3.1-54.9-4.1
				C342-208,344.6-207.7,344.6-207.7z M98.5-209.3c-11.6,0.4-22.9,0.9-34.8,1.1c-4.2,0.1-9.6-0.6-26.7-1.7
				C66.1-209.6,82.3-209.4,98.5-209.3z"/>
			<path fill="#534741" d="M164.6-336.7c-29.1,1.8-56.4,4.2-87.8,5.2c-18.1,0.6-42.8-1.2-64.5-1.9c16.4-1.6,31.2-4.2,49.6-4.5
				c68.1-1.1,137.2-1.7,206.2-2.1c17.2-0.1,50.3,1.1,50.3,1.7c-0.3,3.2-20.5,4.9-51.6,4.2c-35-0.8-69.4-1.8-103.9-2.7
				c11.2,0.2,22.2,0.3,33.2,0.4c-0.1-0.4-0.2-0.9-0.3-1.3C185.3-337.5,175-337.1,164.6-336.7z"/>
			<path fill="#534741" d="M2.9-163.3c63.9-9.9,188.9-5.4,196.9-4c47.7,8.3,124,3.7,178.1,8.2C256.1-160.5,134.4-161.8,2.9-163.3z"
				/>
			<path fill="#534741" d="M19.6-297.7c120.5,0,241,0,361.5,0c0.3,0.7,0.6,1.5,1,2.2c-120.4,0.7-240.8,1.3-361.2,2
				C20.4-295,20-296.3,19.6-297.7z"/>
			<path fill="#534741" d="M64.7-196.8c76.8,7.9,165.4,3.9,251.6,2.9c26.8-0.3,54.5,0.3,83.7,2.5c-17.9,0.5-35.8,1.3-53.8,1.3
				c-103.6,0.1-207.2,0.1-310.7,0c-11.6,0-23-1.4-34.5-2.2c16-0.4,31.9-0.7,48.2-1.1c10.9,0.3,21.4,0.7,31.9,1
				c-0.2-0.5-0.4-0.9-0.6-1.4c-11.1,0.2-22.2,0.4-33.3,0.5c6.2-1.3,12.3-2.5,18.5-3.8L64.7-196.8z"/>
			<path fill="#534741" d="M19-261.5c125.7-0.8,251.4-1.6,377.1-2.4c0.3,1,0.7,1.9,1,2.9c-126,0-252,0-378,0
				C19.1-261.2,19-261.4,19-261.5z"/>
			<path fill="#534741" d="M11.7-92.7c106.7,0.5,213.5,1.1,320.2,1.6c-0.5,1.1-1.1,2.2-1.6,3.4c-106.5-0.8-213.1-1.6-319.6-2.4
				C11-91,11.3-91.8,11.7-92.7z"/>
			<path fill="#534741" d="M6.6-245.1c32.1,0.6,64.1,1.3,96,1.9c-11.2-0.2-22.2-0.3-33.2-0.4c0.1,0.4,0.2,0.9,0.3,1.3
				c10.3-0.4,20.7-0.7,31-1.1c49.4,0.3,98.7,0.6,148.1,1c-0.4,0.8-0.9,1.6-1.3,2.4c-68,0-136.2,0.3-203.9-0.2
				c-13.1-0.1-24.2-3.2-36.2-4.9L6.6-245.1z"/>
			<path fill="#534741" d="M3.5-23c119.1,0,238.2,0,357.3,0c0.1,0.5,0.2,1.1,0.3,1.6c-119.1,0-238.2,0-357.4,0
				C3.6-21.9,3.6-22.5,3.5-23z"/>
			<path fill="#534741" d="M170.8-400c38.7,3.4,38.7,3.4,209.5,0C311.3-400,242.2-400,170.8-400z M239.1-397.7c5.5,0,11-0.1,16.3,0
				c1.6,0,2.8,0.4,4.1,0.7c-5.4,0.2-10.8,0.4-16.1,0.6C242-396.8,240.5-397.3,239.1-397.7z"/>
			<path fill="#534741" d="M375.4-214.6c-118.4,0-236.9,0-355.3,0c0-0.3,0.1-0.7,0.1-1c119.2,0,238.5,0,357.7,0
				C377.1-215.2,376.2-214.9,375.4-214.6z"/>
			<path fill="#534741" d="M333.9-101c-82.7-1.3-165.5-2.7-232.4-3.8c78.8,0,176.8,0,272.2,0C364.5-103.9,349.2-102.5,333.9-101
				l0.9-0.1l-1.9,0L333.9-101z"/>
			<path fill="#534741" d="M339.7-308.6c-106.5,0-212.9,0-319.4,0c0-0.3-0.1-0.7-0.1-1c105.6,0,211.2,0,316.8,0
				C337.9-309.2,338.8-308.9,339.7-308.6z"/>
			<path fill="#534741" d="M163.8-47.2c-50.5-0.4-101-0.7-151.5-1.1c-1-0.7-2-1.4-3.1-2.2c60.5-0.6,120.9-1.1,190.4-1.8
				c-17.1,2.4-27.3,3.8-37.5,5.2L163.8-47.2z"/>
			<path fill="#534741" d="M98.7-319.3c80,0,160,0,240.1,0c0.3,0.4,0.6,0.8,0.9,1.2c-80,0-159.9,0-239.9,0
				C99.4-318.5,99-318.9,98.7-319.3z"/>
			<path fill="#534741" d="M137.4-11.9c81,0,162,0,243,0c0,0.6,0,1.1,0,1.7c-80.8,0-161.6,0-242.4,0
				C137.8-10.8,137.6-11.4,137.4-11.9z"/>
			<path fill="#534741" d="M147.6-366.9c-48.3,0-96.5,0-144.8,0c-0.1-0.7-0.3-1.3-0.4-2c48.3,0,96.6,0,144.8,0
				C147.4-368.2,147.5-367.5,147.6-366.9z"/>
			<path fill="#534741" d="M380.5-234.6c-80.9,0-161.8,0-242.7,0c-0.1-0.3-0.1-0.6-0.2-0.8c80.9,0,161.9,0,242.8,0
				C380.4-235.1,380.4-234.8,380.5-234.6z"/>
			<path fill="#534741" d="M262.4-354.6c-80.8,0-161.6,0-242.4,0c0-0.3-0.1-0.7-0.1-1c80.1,0,160.3,0,240.4,0
				C261-355.3,261.7-355,262.4-354.6z"/>
			<path fill="#534741" d="M14.6-228.1c63.9,0,127.9,0,191.8,0c-0.1,0.5-0.2,0.9-0.3,1.4c-64.6,0-129.2,0-193.8,0
				C13.1-227.2,13.9-227.6,14.6-228.1z"/>
			<path fill="#534741" d="M213.7-73.1c55.4,0,110.9,0,166.3,0c0.2,0.2,0.3,0.4,0.5,0.7c-55.4,0.7-110.9,1.3-166.3,2
				C214-71.3,213.8-72.2,213.7-73.1z"/>
			<path fill="#534741" d="M379.3-78.5c-67.2,0-134.4,0-201.6,0c-0.2-0.2-0.3-0.5-0.5-0.7c67.2,0,134.5,0,201.7,0
				C379.1-78.9,379.2-78.7,379.3-78.5z"/>
			<path fill="#534741" d="M323.4-312.6c-61.8,0-123.5,0-185.3,0c-0.1-0.3-0.1-0.6-0.2-0.9c61.8,0,123.5,0,185.3,0
				C323.3-313.2,323.4-312.9,323.4-312.6z"/>
			<path fill="#534741" d="M96.1-55.4c55.5,0,110.9,0,166.4,0c0.1,0.3,0.1,0.6,0.2,0.8c-55.5,0-110.9,0-166.4,0
				C96.3-54.8,96.2-55.1,96.1-55.4z"/>
			<path fill="#534741" d="M150.1-129.8c-44.2-0.9-88.4-1.9-132.6-2.8c0.5-0.5,1.1-1,1.6-1.5c45.8,0.5,91.5,1,137.3,1.5
				C154.3-131.7,152.2-130.8,150.1-129.8z"/>
			<path fill="#534741" d="M40.4-253.6c49.5,0,98.9,0,148.4,0c0,0.3,0,0.7,0,1c-49,0-98,0-147,0C41.3-252.9,40.8-253.2,40.4-253.6z"
				/>
			<path fill="#534741" d="M251.2-109.6c42.3,0,84.7,0,127,0c0.1,0.3,0.2,0.7,0.3,1c-42.3,0-84.7,0-127,0
				C251.4-108.9,251.3-109.2,251.2-109.6z"/>
			<path fill="#534741" d="M31.3-325.4c34,0.5,68,1,101.9,1.5c0.2,0.4,0.3,0.8,0.5,1.2c-35.3,0-70.6,0-106,0
				C29-323.6,30.2-324.5,31.3-325.4z"/>
			<path fill="#534741" d="M283.9-177.6c34.9-0.4,69.9-0.7,104.8-1.1c0.4,0.6,0.8,1.2,1.2,1.9c-35,0-70.1,0-105.1,0
				C284.5-177,284.2-177.3,283.9-177.6z"/>
			<path fill="#534741" d="M322-198.4c-36.3,0-72.5,0-108.8,0c-0.2-0.3-0.4-0.7-0.6-1c36.1,0,72.2,0,108.3,0
				C321.3-199,321.7-198.7,322-198.4z"/>
			<path fill="#534741" d="M290.3-283.1c36.1,0,72.1,0,108.2,0c-0.4,0.5-0.8,1-1.2,1.5c-36.7-0.3-73.5-0.6-110.2-1
				C288.1-282.7,289.2-282.9,290.3-283.1z"/>
			<path fill="#534741" d="M387.4-386.4c-28.1,0-56.2,0-84.2,0c0-0.6,0-1.2,0-1.9c28.1,0,56.2,0,84.2,0
				C387.4-387.7,387.4-387.1,387.4-386.4z"/>
			<path fill="#534741" d="M134.7-249.7c30.6,0,61.3,0,91.9,0c0.1,0.3,0.3,0.7,0.4,1c-30.6,0-61.3,0-91.9,0
				C134.9-249.1,134.8-249.4,134.7-249.7z"/>
			<path fill="#534741" d="M267.7-36.4c-32.6,0-65.1,0-97.7,0c0-0.3,0-0.6-0.1-0.9c32.6,0,65.1,0,97.7,0
				C267.7-37,267.7-36.7,267.7-36.4z"/>
			<path fill="#534741" d="M285-65.3c32.6,0,65.2,0,97.8,0c-0.1,0.3-0.1,0.6-0.2,0.9c-32.6,0-65.2,0-97.8,0
				C284.9-64.7,284.9-65,285-65.3z"/>
			<path fill="#534741" d="M294.6-252.9c34.8,0.6,69.6,1.2,104.4,1.8c-2.2,0.8-4.4,1.6-6.6,2.4c-32.3-1.4-64.6-2.9-97-4.3
				L294.6-252.9z"/>
			<path fill="#534741" d="M59.7-275.7c30.6,0,61.2,0,91.8,0c-0.1,0.3-0.1,0.7-0.2,1c-31.7,0-63.3,0-95,0
				C57.5-275,58.6-275.3,59.7-275.7z"/>
			<path fill="#534741" d="M74.2-59.3c32.6,0,65.2,0,97.9,0c0,0.3-0.1,0.6-0.1,0.9c-32.6,0-65.2,0-97.9,0
				C74.1-58.7,74.1-59,74.2-59.3z"/>
			<path fill="#534741" d="M285.3-271.7c-10.7-0.6-19.9-1.1-29.1-1.6c8.5-0.9,18.8-2.6,25.1-2.4c12.8,0.3,23.4,1.6,34.9,2.5
				C306.6-272.7,296.9-272.2,285.3-271.7z"/>
			<path fill="#534741" d="M380.8-230.6c-26.1,0-52.3,0-78.4,0c0.1-0.3,0.2-0.7,0.2-1c26.4,0,52.7,0,79.1,0
				C381.4-231.2,381.1-230.9,380.8-230.6z"/>
			<path fill="#534741" d="M336.2-149.3c-23.3,0.5-46.6,1.1-69.8,1.6c-0.8-0.8-1.5-1.6-2.3-2.5c23.5,0.3,47,0.7,70.4,1L336.2-149.3z
				"/>
			<path fill="#534741" d="M234.2-325.6c28.5-1.1,57-2.2,85.4-3.4c1.7,0.8,3.4,1.5,5.1,2.3c-31.1,0.3-62.2,0.5-93.4,0.8
				C231.2-325.9,234.2-325.6,234.2-325.6z"/>
			<path fill="#534741" d="M384.1-94.4c-25.7,0-51.3,0-77,0c-0.1-0.3-0.2-0.5-0.2-0.8c25.7,0,51.4,0,77.1,0
				C384-95,384-94.7,384.1-94.4z"/>
			<path fill="#534741" d="M13-313.6c22.3,0,44.6,0,67,0c0,0.3,0,0.7,0,1c-22.3,0-44.6,0-67,0C13-313,13-313.3,13-313.6z"/>
			<path fill="#534741" d="M324.1-7.4c20,0,40,0,60,0c0.1,0.4,0.2,0.7,0.3,1.1c-20.8,0.1-41.6,0.2-62.4,0.4
				C322.8-6.4,323.5-6.9,324.1-7.4z"/>
			<path fill="#534741" d="M321.7-355.8c20,0,40.1,0,60.1,0c0.2,0.4,0.4,0.7,0.7,1.1c-19.4,0.2-38.9,0.3-58.3,0.5
				C323.3-354.8,322.5-355.3,321.7-355.8z"/>
			<path fill="#534741" d="M79.5-280.6c-22.2,0-44.4,0-66.6,0c0-0.3,0-0.6,0-0.9c22.2,0,44.4,0,66.6,0
				C79.5-281.2,79.5-280.9,79.5-280.6z"/>
			<path fill="#534741" d="M211.1-367.3c13.3-1.2,21.4-2.3,31.5-2.6c5.3-0.1,14.3,1.3,21.6,2c-9.2,0.5-17.8,1.3-27.7,1.5
				C230.9-366.2,223.3-366.8,211.1-367.3z"/>
			<path fill="#534741" d="M324.1-118.3c-19.9,0-39.9,0-59.8,0c-0.1-0.4-0.3-0.7-0.4-1.1c20.7-0.1,41.4-0.3,62.1-0.4
				C325.3-119.3,324.7-118.8,324.1-118.3z"/>
			<path fill="#534741" d="M213.2-27.3c24.8,0,40.4,0,55.9,0c-10.6,0.4-20.8,1-31.8,1.3C233.1-25.9,227.4-26.5,213.2-27.3z"/>
			<path fill="#534741" d="M332.9-101.1c-22.6,0.4-45.1,0.8-67.7,1.1c-0.1-0.6-0.2-1.3-0.3-1.9c22.9,0.3,45.8,0.6,68.9,0.9
				C333.9-101,332.9-101.1,332.9-101.1z"/>
			<path fill="#534741" d="M92.8-119.9c15.5,0.1,30.9,0.3,46.4,0.4c-0.2,0.3-0.3,0.7-0.5,1c-16.3,0-32.5,0-48.8,0
				C90.8-118.9,91.8-119.4,92.8-119.9z"/>
			<path fill="#534741" d="M383.4-35.9c-15.5-0.1-30.9-0.3-46.4-0.4c0.2-0.3,0.3-0.7,0.5-1c16.3,0,32.5,0,48.8,0
				C385.4-36.9,384.4-36.4,383.4-35.9z"/>
			<path fill="#534741" d="M7.5-245.2c2.1-1.6,3.8-3.2,7.5-4.7c0.3-0.1,16.1,0.2,24.7,0.3c-11,1.5-21.9,2.9-33,4.4
				C6.6-245.1,7.5-245.2,7.5-245.2z"/>
			<path fill="#534741" d="M330.8-130.4c-16.3,0-32.7,0-49,0c0-0.3-0.1-0.6-0.1-0.9c16.4,0,32.7,0,49.1,0
				C330.7-131,330.7-130.7,330.8-130.4z"/>
			<path fill="#534741" d="M342-143.2c13.7-1.1,24.1-2.3,28-2.1c9.9,0.5,16.8,1.6,24.9,2.5c-8.4,0.3-16.7,0.7-25.1,0.7
				C363.3-142.1,356.7-142.6,342-143.2z"/>
			<path fill="#534741" d="M298.7-373.7c16.3,0,32.7,0,49,0c0,0.3,0.1,0.6,0.1,0.9c-16.4,0-32.7,0-49.1,0
				C298.8-373.1,298.8-373.4,298.7-373.7z"/>
			<path fill="#534741" d="M75.1-28c-29.1-0.3-45.3-0.4-61.5-0.6c11.6-0.4,22.9-0.9,34.8-1.1C52.6-29.8,58-29.1,75.1-28z"/>
			<path fill="#534741" d="M49.9-136.7c-10.9,0.3-19.1,0.6-27.4,0.6c-4.8,0-9.6-0.6-14.4-0.9c8.1-0.3,16.1-0.7,24.3-0.8
				C37.1-137.8,42.2-137.2,49.9-136.7z"/>
			<path fill="#534741" d="M124.7-135.9c-6.3-0.3-13.7-0.7-21.1-1.1c5.1-0.3,10.5-0.8,15.2-0.8c8,0.1,15.7,0.6,23.4,0.9
				C137.2-136.6,132.1-136.3,124.7-135.9z"/>
			<path fill="#534741" d="M28.8-73.8c-6.3-0.3-13.7-0.7-21.1-1.1c5.1-0.3,10.5-0.8,15.2-0.8c8,0.1,15.7,0.6,23.4,0.9
				C41.3-74.5,36.3-74.3,28.8-73.8z"/>
			<path fill="#534741" d="M122.6-360.1c-5.2-0.4-11.3-0.8-17.3-1.3c5.3-0.2,11.1-0.7,15.8-0.6c6.9,0.1,13.1,0.7,19.6,1.1
				C135.3-360.7,130.1-360.5,122.6-360.1z"/>
			<path fill="#534741" d="M241.6-6.6C230.7-6.3,222.5-6,214.2-6c-4.8,0-9.6-0.6-14.4-0.9c8.1-0.3,16.1-0.7,24.3-0.8
				C228.8-7.7,233.8-7.1,241.6-6.6z"/>
			<path fill="#534741" d="M94.6-374c14.7,0.2,29.4,0.3,44,0.5c-2.9,0.4-7.6,1.2-8.5,1.1c-11.3-0.6-22-1.2-32.9-1.9
				C97.2-374.3,94.6-374,94.6-374z"/>
			<path fill="#534741" d="M333.9-101c17.6-0.3,35.2-0.6,52.8-0.9c-0.2,0.5-0.4,1-0.6,1.6c-16.9-0.3-33.9-0.5-51.1-0.8
				C334.8-101.1,333.9-101,333.9-101z"/>
			<path fill="#534741" d="M295.6-253c-17.6,0.3-35.2,0.6-52.8,0.9c0.2-0.5,0.4-1,0.6-1.6c16.9,0.3,33.9,0.5,51.1,0.8
				C294.6-252.9,295.6-253,295.6-253z"/>
			<path fill="#534741" d="M226.5-323.9c15.1,0.1,30.2,0.2,45.3,0.3c-2.4,0.4-6.3,1.2-6.9,1.2c-12.1-0.5-23.8-1.2-35.5-1.8
				L226.5-323.9z"/>
			<path fill="#534741" d="M239.7-210.8c16.1-0.4,32.2-0.8,48.3-1.2c0.2,0.5,0.4,1,0.7,1.5c-16.7-0.2-33.4-0.3-50.2-0.5
				C238.4-210.9,239.7-210.8,239.7-210.8z"/>
			<path fill="#534741" d="M65.6-196.9c-17.6,0.3-35.2,0.6-52.8,0.9c0.2-0.5,0.4-1,0.6-1.6c16.9,0.3,33.9,0.5,51.1,0.8
				C64.7-196.8,65.6-196.9,65.6-196.9z"/>
			<path fill="#534741" d="M8.9-218.5c4.3-0.6,6.9-1.3,9.4-1.3c8.4,0,16.7,0.3,25.1,0.5c-2.4,0.4-4.6,1.1-7.2,1.1
				C27.9-218.2,19.4-218.4,8.9-218.5z"/>
			<path fill="#534741" d="M44.2-200c-4.2-0.4-9-0.9-13.9-1.4c5.4-0.2,11.4-0.7,16-0.5c6,0.2,10.9,0.8,16.3,1.2
				C57.2-200.5,51.9-200.3,44.2-200z"/>
			<path fill="#534741" d="M312.5-240c-4.2-0.4-9-0.9-13.9-1.4c5.4-0.2,11.4-0.7,16-0.5c6,0.2,10.9,0.8,16.3,1.2
				C325.5-240.5,320.2-240.3,312.5-240z"/>
			<path fill="#534741" d="M26.8-264c-5.2-0.4-11.3-0.8-17.3-1.3c5.3-0.2,11.1-0.7,15.8-0.6c6.9,0.1,13.1,0.7,19.6,1.1
				C39.5-264.6,34.3-264.4,26.8-264z"/>
			<path fill="#534741" d="M34.2-348.3c-2.5-0.4-4.8-0.8-7.2-1.2c5.5-0.1,11.1-0.3,16.6-0.3c2.2,0,4.2,0.4,6.4,0.7
				C44.7-348.9,39.4-348.6,34.2-348.3z"/>
			<path fill="#534741" d="M162.1-47c11.1-0.2,22.2-0.4,33.3-0.5c0.2,0.5,0.4,0.9,0.6,1.4c-10.5-0.3-21.1-0.7-31.9-1
				C163.8-47.2,162.1-47,162.1-47z"/>
			<path fill="#534741" d="M183.1-257.3c-4.3,0.4-8.1,0.9-11.5,0.9c-4.3,0-8.3-0.6-12.4-0.9c2.3-0.2,4.9-0.6,6.8-0.6
				C171.5-257.8,176.8-257.5,183.1-257.3z"/>
			<path fill="#534741" d="M68.1-175.2c-4.3,0.4-8.1,0.9-11.5,0.9c-4.3,0-8.3-0.6-12.4-0.9c2.3-0.2,4.9-0.6,6.8-0.6
				C56.5-175.7,61.8-175.4,68.1-175.2z"/>
			<path fill="#534741" d="M11.2-174.8c-4-0.4-8-0.6-10.4-1c-1.2-0.2,0.2-0.8,1-0.9c4.2-0.1,8.6,0,12.9,0
				C13.6-176.1,12.5-175.5,11.2-174.8z"/>
			<path fill="#534741" d="M139.5-182.9c4.6-0.3,8.8-0.8,13.2-0.8c3.3,0,6.8,0.6,10.3,0.9c-2.3,0.2-5,0.6-6.9,0.5
				C150.5-182.4,145.3-182.6,139.5-182.9z"/>
			<path fill="#534741" d="M51.8-184.2c-1.4-0.4-2.9-0.8-4.3-1.3c5.5,0,11-0.1,16.3,0c1.6,0,2.8,0.4,4.1,0.7
				C62.6-184.6,57.2-184.4,51.8-184.2z"/>
			<path fill="#534741" d="M53.4-222.2c-2.5-0.4-4.8-0.8-7.2-1.2c5.5-0.1,11.1-0.3,16.6-0.3c2.2,0,4.2,0.4,6.4,0.7
				C63.9-222.7,58.6-222.5,53.4-222.2z"/>
			<path fill="#534741" d="M53.4-256.3c-2.5-0.4-4.8-0.8-7.2-1.2c5.5-0.1,11.1-0.3,16.6-0.3c2.2,0,4.2,0.4,6.4,0.7
				C63.9-256.8,58.6-256.5,53.4-256.3z"/>
			<path fill="#534741" d="M72.5,0c-2.5-0.4-4.8-0.8-7.2-1.2c5.5-0.1,11.1-0.3,16.6-0.3c2.2,0,4.2,0.4,6.4,0.7
				C83-0.5,77.7-0.3,72.5,0z"/>
			<path fill="#534741" d="M130-96.1c-2.5-0.4-4.8-0.8-7.2-1.2c5.5-0.1,11.1-0.3,16.6-0.3c2.2,0,4.2,0.4,6.4,0.7
				C140.5-96.6,135.2-96.3,130-96.1z"/>
			<path fill="#534741" d="M144.8-75.1c-4.3,0.4-8.1,0.9-11.5,0.9c-4.3,0-8.3-0.6-12.4-0.9c2.3-0.2,4.9-0.6,6.8-0.6
				C133.2-75.6,138.5-75.3,144.8-75.1z"/>
			<path fill="#534741" d="M393.9-395.4c-4.3,0.4-8.1,0.9-11.5,0.9c-4.3,0-8.3-0.6-12.4-0.9c2.3-0.2,4.9-0.6,6.8-0.6
				C382.3-395.9,387.6-395.6,393.9-395.4z"/>
			<path fill="#534741" d="M109.3-256.3c-1.4-0.4-2.9-0.8-4.3-1.3c5.5,0,11-0.1,16.3,0c1.6,0,2.8,0.4,4.1,0.7
				C120-256.7,114.7-256.5,109.3-256.3z"/>
			<path fill="#534741" d="M334.6-149.1c11.1-0.2,22.2-0.4,33.3-0.5c0.2,0.5,0.4,0.9,0.6,1.4c-10.5-0.3-21.1-0.7-31.9-1
				C336.2-149.3,334.6-149.1,334.6-149.1z"/>
			<path fill="#534741" d="M302.5-164.2c-2.5-0.4-4.8-0.8-7.2-1.2c5.5-0.1,11.1-0.3,16.6-0.3c2.2,0,4.2,0.4,6.4,0.7
				C313-164.7,307.7-164.4,302.5-164.2z"/>
			<path fill="#534741" d="M208.8-130.1c-3.7-0.4-7.1-0.7-10.5-1c5.4-0.2,10.7-0.5,16.3-0.5c1.9,0,4.4,0.4,6.7,0.6
				C217-130.8,212.9-130.4,208.8-130.1z"/>
			<path fill="#534741" d="M335.7-351.5c-3.5,0.4-5.9,0.8-9.5,1.1c-1.9,0.1-8.1,0-8.2-0.1c-0.7-0.4,0-0.9,0.3-1.3
				C323.7-351.7,329.2-351.6,335.7-351.5z"/>
			<path fill="#534741" d="M379.1,0c-2.5-0.4-4.8-0.8-7.2-1.2c5.5-0.1,11.1-0.3,16.6-0.3c2.2,0,4.2,0.4,6.4,0.7
				C389.6-0.5,384.4-0.3,379.1,0z"/>
			<path fill="#534741" d="M229.3-324.2c-9.7-0.4-19.5-0.8-29.2-1.2c11.3-0.1,22.5-0.2,34-0.2c0.1,0-2.9-0.3-2.7-0.3
				c-1.5,0.7-3.2,1.3-4.8,2C226.5-323.9,229.3-324.2,229.3-324.2z"/>
			<path fill="#534741" d="M262.6-182.2c-1.4-0.4-2.9-0.8-4.3-1.3c5.5,0,11-0.1,16.3,0c1.6,0,2.8,0.4,4.1,0.7
				C273.4-182.6,268-182.4,262.6-182.2z"/>
			<path fill="#534741" d="M225.8-64.1c-2.5-0.4-4.8-0.8-7.2-1.2c5.5-0.1,11.1-0.3,16.6-0.3c2.2,0,4.2,0.4,6.4,0.7
				C236.3-64.6,231.1-64.3,225.8-64.1z"/>
			<path fill="#534741" d="M393.9-173.2c-4.3,0.4-8.1,0.9-11.5,0.9c-4.3,0-8.3-0.6-12.4-0.9c2.3-0.2,4.9-0.6,6.8-0.6
				C382.3-173.7,387.6-173.4,393.9-173.2z"/>
			<path fill="#534741" d="M259.1-173.3c-3.5,0.4-5.9,0.8-9.5,1.1c-1.9,0.1-8.1,0-8.2-0.1c-0.7-0.4,0-0.9,0.3-1.3
				C247.1-173.6,252.5-173.4,259.1-173.3z"/>
			<path fill="#534741" d="M379.1-26c-2.5-0.4-4.8-0.8-7.2-1.2c5.5-0.1,11.1-0.3,16.6-0.3c2.2,0,4.2,0.4,6.4,0.7
				C389.6-26.5,384.4-26.3,379.1-26z"/>
			<path fill="#534741" d="M393.2-313.4c-3.5,0.4-5.9,0.8-9.5,1.1c-1.9,0.1-8.1,0-8.2-0.1c-0.7-0.4,0-0.9,0.3-1.3
				C381.2-313.7,386.7-313.6,393.2-313.4z"/>
			<path fill="#534741" d="M393.9-139.2c-4.3,0.4-8.1,0.9-11.5,0.9c-4.3,0-8.3-0.6-12.4-0.9c2.3-0.2,4.9-0.6,6.8-0.6
				C382.3-139.6,387.6-139.4,393.9-139.2z"/>
			<path fill="#534741" d="M352.7-378.5c-1.9-0.2-5.5-0.5-5.4-0.7c0.1-0.2,4.1-0.6,6.1-0.6c2.1,0,3.9,0.4,5.9,0.6
				C357.1-378.9,354.9-378.7,352.7-378.5z"/>
			<path fill="#534741" d="M352.7-360.5c-1.9-0.2-5.5-0.5-5.4-0.7c0.1-0.2,4-0.4,6.2-0.6c1.9,0.2,3.9,0.5,5.8,0.7
				C357.1-360.9,354.9-360.7,352.7-360.5z"/>
			<path fill="#534741" d="M344.6-207.7c1.9-0.6,3.9-1.1,5.8-1.7c-2.8,0.5-5.6,0.9-8.4,1.4C342-208,344.6-207.7,344.6-207.7z"/>
			<path fill="#534741" d="M391-182.3c-1.9-0.2-5.5-0.5-5.4-0.7c0.1-0.2,4.1-0.6,6.1-0.6c2.1,0,3.9,0.4,5.9,0.6
				C395.4-182.8,393.2-182.6,391-182.3z"/>
			<path fill="#534741" d="M327.7-139c2.2-0.2,4.5-0.6,6.6-0.6c2.1,0,5.5,0.4,5.4,0.6c-0.1,0.2-4,0.4-6.2,0.6
				C331.6-138.5,329.7-138.8,327.7-139z"/>
			<path fill="#534741" d="M371.8-134.3c-1.9-0.2-5.5-0.5-5.4-0.7c0.1-0.2,4-0.4,6.2-0.6c1.9,0.2,3.9,0.5,5.8,0.7
				C376.2-134.7,374-134.5,371.8-134.3z"/>
			<path fill="#534741" d="M385.2-46.9c2.2-0.2,4.5-0.6,6.6-0.6c2.1,0,5.5,0.4,5.4,0.6c-0.1,0.2-4,0.4-6.2,0.6
				C389.1-46.4,387.1-46.7,385.2-46.9z"/>
			<path fill="#534741" d="M33.5-96.9c-2.2,0.2-4.5,0.6-6.6,0.6c-2.1,0-3.9-0.4-5.9-0.6c2.2-0.2,4.4-0.4,6.6-0.6
				C29.6-97.3,31.6-97.1,33.5-96.9z"/>
			<path fill="#534741" d="M1.9-289.1c2.2-0.2,4.5-0.6,6.6-0.6c2.1,0,5.5,0.4,5.4,0.6c-0.1,0.2-4,0.4-6.2,0.6
				C5.8-288.7,3.9-288.9,1.9-289.1z"/>
			<path fill="#534741" d="M14.3-257c-2.2,0.2-4.5,0.6-6.6,0.6c-2.1,0-3.9-0.4-5.9-0.6c2.2-0.2,4.4-0.4,6.6-0.6
				C10.5-257.5,12.4-257.3,14.3-257z"/>
			<path fill="#534741" d="M391-118.3c-1.9-0.2-5.5-0.5-5.4-0.7c0.1-0.2,4-0.4,6.2-0.6c1.9,0.2,3.9,0.5,5.8,0.7
				C395.4-118.7,393.2-118.5,391-118.3z"/>
			<path fill="#534741" d="M1.9-113c2.2-0.2,4.5-0.6,6.6-0.6c2.1,0,5.5,0.4,5.4,0.6c-0.1,0.2-4,0.4-6.2,0.6
				C5.8-112.5,3.9-112.7,1.9-113z"/>
			<path fill="#534741" d="M7.7-12.2c-1.9-0.2-5.5-0.5-5.4-0.7c0.1-0.2,4.1-0.6,6.1-0.6c2.1,0,3.9,0.4,5.9,0.6
				C12.2-12.6,10-12.4,7.7-12.2z"/>
			<path fill="#534741" d="M7.7-0.2C5.8-0.4,2.3-0.6,2.4-0.9c0.1-0.2,4.1-0.6,6.1-0.6c2.1,0,3.9,0.4,5.9,0.6
				C12.2-0.6,10-0.4,7.7-0.2z"/>
			<path fill="#534741" d="M391-350.5c-1.9-0.2-5.5-0.5-5.4-0.7c0.1-0.2,4-0.4,6.2-0.6c1.9,0.2,3.9,0.5,5.8,0.7
				C395.4-350.9,393.2-350.7,391-350.5z"/>
			<path fill="#534741" d="M225.1-58.8c-2.2,0.2-4.5,0.6-6.6,0.6c-2.1,0-3.9-0.4-5.9-0.6c2.2-0.2,4.4-0.4,6.6-0.6
				C221.3-59.3,223.2-59.1,225.1-58.8z"/>
			<path fill="#534741" d="M225.1-118.9c-2.2,0.2-4.5,0.6-6.6,0.6c-2.1,0-3.9-0.4-5.9-0.6c2.2-0.2,4.4-0.4,6.6-0.6
				C221.3-119.4,223.2-119.1,225.1-118.9z"/>
			<path fill="#534741" d="M218.5-152.3c-1.9-0.2-5.5-0.5-5.4-0.7c0.1-0.2,4.1-0.6,6.1-0.6c2.1,0,3.9,0.4,5.9,0.6
				C223-152.7,220.8-152.5,218.5-152.3z"/>
			<path fill="#534741" d="M391-344.5c-1.9-0.2-5.5-0.5-5.4-0.7c0.1-0.2,4.1-0.6,6.1-0.6c2.1,0,3.9,0.4,5.9,0.6
				C395.4-344.9,393.2-344.7,391-344.5z"/>
			<path fill="#534741" d="M391-366.5c-1.9-0.2-5.5-0.5-5.4-0.7c0.1-0.2,4-0.4,6.2-0.6c1.9,0.2,3.9,0.5,5.8,0.7
				C395.4-366.9,393.2-366.7,391-366.5z"/>
			<path fill="#534741" d="M141.9-342.5c-1.9-0.2-5.5-0.5-5.4-0.7c0.1-0.2,4.1-0.6,6.1-0.6c2.1,0,3.9,0.4,5.9,0.6
				C146.3-342.9,144.1-342.7,141.9-342.5z"/>
			<path fill="#534741" d="M237.7-176.3c-1.9-0.2-5.5-0.5-5.4-0.7c0.1-0.2,4.1-0.6,6.1-0.6c2.1,0,3.9,0.4,5.9,0.6
				C242.1-176.7,239.9-176.5,237.7-176.3z"/>
			<path fill="#534741" d="M141.9-280.4c-1.9-0.2-5.5-0.5-5.4-0.7c0.1-0.2,4.1-0.6,6.1-0.6c2.1,0,3.9,0.4,5.9,0.6
				C146.3-280.9,144.1-280.6,141.9-280.4z"/>
			<path fill="#534741" d="M256.8-350.5c-1.9-0.2-5.5-0.5-5.4-0.7c0.1-0.2,4-0.4,6.2-0.6c1.9,0.2,3.9,0.5,5.8,0.7
				C261.2-350.9,259-350.7,256.8-350.5z"/>
			<path fill="#534741" d="M276-6.2c-1.9-0.2-5.5-0.5-5.4-0.7c0.1-0.2,4.1-0.6,6.1-0.6c2.1,0,3.9,0.4,5.9,0.6
				C280.5-6.6,278.2-6.4,276-6.2z"/>
			<path fill="#534741" d="M391-308.5c-1.9-0.2-5.5-0.5-5.4-0.7c0.1-0.2,4-0.4,6.2-0.6c1.9,0.2,3.9,0.5,5.8,0.7
				C395.4-308.9,393.2-308.7,391-308.5z"/>
			<path fill="#534741" d="M110.2-393.2c-2.2,0.2-4.5,0.6-6.6,0.6c-2.1,0-3.9-0.4-5.9-0.6c2.2-0.2,4.4-0.4,6.6-0.6
				C106.3-393.6,108.2-393.4,110.2-393.2z"/>
			<path fill="#534741" d="M276-58.2c-1.9-0.2-5.5-0.5-5.4-0.7c0.1-0.2,4.1-0.6,6.1-0.6c2.1,0,3.9,0.4,5.9,0.6
				C280.5-58.6,278.2-58.4,276-58.2z"/>
			<path fill="#534741" d="M103.6-176.3c-1.9-0.2-5.5-0.5-5.4-0.7c0.1-0.2,4.1-0.6,6.1-0.6c2.1,0,3.9,0.4,5.9,0.6
				C108-176.7,105.8-176.5,103.6-176.3z"/>
			<path fill="#534741" d="M97.2-374.3c-5.4-0.2-10.8-0.4-16.2-0.6c4.5,0.3,9,0.6,13.6,0.9C94.6-374,97.2-374.3,97.2-374.3z"/>
			<path fill="#534741" d="M295.2-366.5c-1.9-0.2-5.5-0.5-5.4-0.7c0.1-0.2,4.1-0.6,6.1-0.6c2.1,0,3.9,0.4,5.9,0.6
				C299.6-366.9,297.4-366.7,295.2-366.5z"/>
			<path fill="#534741" d="M295.2-378.5c-1.9-0.2-5.5-0.5-5.4-0.7c0.1-0.2,4.1-0.6,6.1-0.6c2.1,0,3.9,0.4,5.9,0.6
				C299.6-378.9,297.4-378.7,295.2-378.5z"/>
			<path fill="#534741" d="M314.3-360.5c-1.9-0.2-5.5-0.5-5.4-0.7c0.1-0.2,4-0.4,6.2-0.6c1.9,0.2,3.9,0.5,5.8,0.7
				C318.7-360.9,316.5-360.7,314.3-360.5z"/>
			<path fill="#534741" d="M65.2-392.6c-1.9-0.2-5.5-0.5-5.4-0.7c0.1-0.2,4-0.4,6.2-0.6c1.9,0.2,3.9,0.5,5.8,0.7
				C69.6-393,67.4-392.8,65.2-392.6z"/>
			<path fill="#534741" d="M340.1-0.8c-2.2,0.2-4.5,0.6-6.6,0.6c-2.1,0-3.9-0.4-5.9-0.6c2.2-0.2,4.4-0.4,6.6-0.6
				C336.2-1.2,338.2-1,340.1-0.8z"/>
		</g>
		<g>
			<path fill="#B6B6B6" d="M55.4-192.3c35.4,1.1,70.8,2.1,106.2,3.2l-1.3-0.1c69.4,0.4,138.9,0.9,208.4,1.1
				c10.3,0,20.9-1.7,31.4-2.6c-9.4-1-18.1-2.9-28.1-2.9c-117.8-0.9-235.8-1.5-368.8-2.3C31.2-194,44.6-193,58-192
				C58-192,55.4-192.3,55.4-192.3z M301.5-190.7c11.6-0.4,22.9-0.9,34.8-1.1c4.2-0.1,9.6,0.6,26.7,1.7
				C333.9-190.4,317.7-190.6,301.5-190.7z"/>
			<path fill="#B6B6B6" d="M235.4-63.3c29.1-1.8,56.4-4.2,87.8-5.2c18.1-0.6,42.8,1.2,64.5,1.9c-16.4,1.6-31.2,4.2-49.6,4.5
				c-68.1,1.1-137.2,1.7-206.2,2.1c-17.2,0.1-50.3-1.1-50.3-1.7c0.3-3.2,20.5-4.9,51.6-4.2c35,0.8,69.4,1.8,103.9,2.7
				C226-63.2,215-63.4,204-63.5c0.1,0.4,0.2,0.9,0.3,1.3C214.7-62.5,225-62.9,235.4-63.3z"/>
			<path fill="#B6B6B6" d="M397.1-236.7c-63.9,9.9-188.9,5.4-196.9,4c-47.7-8.3-124-3.7-178.1-8.2
				C143.9-239.5,265.6-238.2,397.1-236.7z"/>
			<path fill="#B6B6B6" d="M380.4-102.3c-120.5,0-241,0-361.5,0c-0.3-0.7-0.6-1.5-1-2.2c120.4-0.7,240.8-1.3,361.2-2
				C379.6-105,380-103.7,380.4-102.3z"/>
			<path fill="#B6B6B6" d="M335.3-203.2c-76.8-7.9-165.4-3.9-251.6-2.9c-26.8,0.3-54.5-0.3-83.7-2.5c17.9-0.5,35.8-1.3,53.8-1.3
				c103.6-0.1,207.2-0.1,310.7,0c11.6,0,23,1.4,34.5,2.2c-16,0.4-31.9,0.7-48.2,1.1c-10.9-0.3-21.4-0.7-31.9-1
				c0.2,0.5,0.4,0.9,0.6,1.4c11.1-0.2,22.2-0.4,33.3-0.5c-6.2,1.3-12.3,2.5-18.5,3.8L335.3-203.2z"/>
			<path fill="#B6B6B6" d="M381-138.5c-125.7,0.8-251.4,1.6-377.1,2.4c-0.3-1-0.7-1.9-1-2.9c126,0,252,0,378,0
				C380.9-138.8,381-138.6,381-138.5z"/>
			<path fill="#B6B6B6" d="M388.3-307.3c-106.7-0.5-213.5-1.1-320.2-1.6c0.5-1.1,1.1-2.2,1.6-3.4c106.5,0.8,213.1,1.6,319.6,2.4
				C389-309,388.7-308.2,388.3-307.3z"/>
			<path fill="#B6B6B6" d="M393.4-154.9c-32.1-0.6-64.1-1.3-96-1.9c11.2,0.2,22.2,0.3,33.2,0.4c-0.1-0.4-0.2-0.9-0.3-1.3
				c-10.3,0.4-20.7,0.7-31,1.1c-49.4-0.3-98.7-0.6-148.1-1c0.4-0.8,0.9-1.6,1.3-2.4c68,0,136.2-0.3,203.9,0.2
				c13.1,0.1,24.2,3.2,36.2,4.9L393.4-154.9z"/>
			<path fill="#B6B6B6" d="M396.5-377c-119.1,0-238.2,0-357.3,0c-0.1-0.5-0.2-1.1-0.3-1.6c119.1,0,238.2,0,357.4,0
				C396.4-378.1,396.4-377.5,396.5-377z"/>
			<path fill="#B6B6B6" d="M229.2,0c-38.7-3.4-38.7-3.4-209.5,0C88.7,0,157.8,0,229.2,0z M160.9-2.3c-5.5,0-11,0.1-16.3,0
				c-1.6,0-2.8-0.4-4.1-0.7c5.4-0.2,10.8-0.4,16.1-0.6C158-3.2,159.5-2.7,160.9-2.3z"/>
			<path fill="#B6B6B6" d="M24.6-185.4c118.4,0,236.9,0,355.3,0c0,0.3-0.1,0.7-0.1,1c-119.2,0-238.5,0-357.7,0
				C22.9-184.8,23.8-185.1,24.6-185.4z"/>
			<path fill="#B6B6B6" d="M66.1-299c82.7,1.3,165.5,2.7,232.4,3.8c-78.8,0-176.8,0-272.2,0C35.5-296.1,50.8-297.5,66.1-299
				l-0.9,0.1l1.9,0L66.1-299z"/>
			<path fill="#B6B6B6" d="M60.3-91.4c106.5,0,212.9,0,319.4,0c0,0.3,0.1,0.7,0.1,1c-105.6,0-211.2,0-316.8,0
				C62.1-90.8,61.2-91.1,60.3-91.4z"/>
			<path fill="#B6B6B6" d="M236.2-352.8c50.5,0.4,101,0.7,151.5,1.1c1,0.7,2,1.4,3.1,2.2c-60.5,0.6-120.9,1.1-190.4,1.8
				c17.1-2.4,27.3-3.8,37.5-5.2L236.2-352.8z"/>
			<path fill="#B6B6B6" d="M301.3-80.7c-80,0-160,0-240.1,0c-0.3-0.4-0.6-0.8-0.9-1.2c80,0,159.9,0,239.9,0
				C300.6-81.5,301-81.1,301.3-80.7z"/>
			<path fill="#B6B6B6" d="M262.6-388.1c-81,0-162,0-243,0c0-0.6,0-1.1,0-1.7c80.8,0,161.6,0,242.4,0
				C262.2-389.2,262.4-388.6,262.6-388.1z"/>
			<path fill="#B6B6B6" d="M252.4-33.1c48.3,0,96.5,0,144.8,0c0.1,0.7,0.3,1.3,0.4,2c-48.3,0-96.6,0-144.8,0
				C252.6-31.8,252.5-32.5,252.4-33.1z"/>
			<path fill="#B6B6B6" d="M19.5-165.4c80.9,0,161.8,0,242.7,0c0.1,0.3,0.1,0.6,0.2,0.8c-80.9,0-161.9,0-242.8,0
				C19.6-164.9,19.6-165.2,19.5-165.4z"/>
			<path fill="#B6B6B6" d="M137.6-45.4c80.8,0,161.6,0,242.4,0c0,0.3,0.1,0.7,0.1,1c-80.1,0-160.3,0-240.4,0
				C139-44.7,138.3-45,137.6-45.4z"/>
			<path fill="#B6B6B6" d="M385.4-171.9c-63.9,0-127.9,0-191.8,0c0.1-0.5,0.2-0.9,0.3-1.4c64.6,0,129.2,0,193.8,0
				C386.9-172.8,386.1-172.4,385.4-171.9z"/>
			<path fill="#B6B6B6" d="M186.3-326.9c-55.4,0-110.9,0-166.3,0c-0.2-0.2-0.3-0.4-0.5-0.7c55.4-0.7,110.9-1.3,166.3-2
				C186-328.7,186.2-327.8,186.3-326.9z"/>
			<path fill="#B6B6B6" d="M20.7-321.5c67.2,0,134.4,0,201.6,0c0.2,0.2,0.3,0.5,0.5,0.7c-67.2,0-134.5,0-201.7,0
				C20.9-321.1,20.8-321.3,20.7-321.5z"/>
			<path fill="#B6B6B6" d="M76.6-87.4c61.8,0,123.5,0,185.3,0c0.1,0.3,0.1,0.6,0.2,0.9c-61.8,0-123.5,0-185.3,0
				C76.7-86.8,76.6-87.1,76.6-87.4z"/>
			<path fill="#B6B6B6" d="M303.9-344.6c-55.5,0-110.9,0-166.4,0c-0.1-0.3-0.1-0.6-0.2-0.8c55.5,0,110.9,0,166.4,0
				C303.7-345.2,303.8-344.9,303.9-344.6z"/>
			<path fill="#B6B6B6" d="M249.9-270.2c44.2,0.9,88.4,1.9,132.6,2.8c-0.5,0.5-1.1,1-1.6,1.5c-45.8-0.5-91.5-1-137.3-1.5
				C245.7-268.3,247.8-269.2,249.9-270.2z"/>
			<path fill="#B6B6B6" d="M359.6-146.4c-49.5,0-98.9,0-148.4,0c0-0.3,0-0.7,0-1c49,0,98,0,147,0
				C358.7-147.1,359.2-146.8,359.6-146.4z"/>
			<path fill="#B6B6B6" d="M148.8-290.4c-42.3,0-84.7,0-127,0c-0.1-0.3-0.2-0.7-0.3-1c42.3,0,84.7,0,127,0
				C148.6-291.1,148.7-290.8,148.8-290.4z"/>
			<path fill="#B6B6B6" d="M368.7-74.6c-34-0.5-68-1-101.9-1.5c-0.2-0.4-0.3-0.8-0.5-1.2c35.3,0,70.6,0,106,0
				C371-76.4,369.8-75.5,368.7-74.6z"/>
			<path fill="#B6B6B6" d="M116.1-222.4c-34.9,0.4-69.9,0.7-104.8,1.1c-0.4-0.6-0.8-1.2-1.2-1.9c35,0,70.1,0,105.1,0
				C115.5-223,115.8-222.7,116.1-222.4z"/>
			<path fill="#B6B6B6" d="M78-201.6c36.3,0,72.5,0,108.8,0c0.2,0.3,0.4,0.7,0.6,1c-36.1,0-72.2,0-108.3,0
				C78.7-201,78.3-201.3,78-201.6z"/>
			<path fill="#B6B6B6" d="M109.7-116.9c-36.1,0-72.1,0-108.2,0c0.4-0.5,0.8-1,1.2-1.5c36.7,0.3,73.5,0.6,110.2,1
				C111.9-117.3,110.8-117.1,109.7-116.9z"/>
			<path fill="#B6B6B6" d="M12.6-13.6c28.1,0,56.2,0,84.2,0c0,0.6,0,1.2,0,1.9c-28.1,0-56.2,0-84.2,0C12.6-12.3,12.6-12.9,12.6-13.6
				z"/>
			<path fill="#B6B6B6" d="M265.3-150.3c-30.6,0-61.3,0-91.9,0c-0.1-0.3-0.3-0.7-0.4-1c30.6,0,61.3,0,91.9,0
				C265.1-150.9,265.2-150.6,265.3-150.3z"/>
			<path fill="#B6B6B6" d="M132.3-363.6c32.6,0,65.1,0,97.7,0c0,0.3,0,0.6,0.1,0.9c-32.6,0-65.1,0-97.7,0
				C132.3-363,132.3-363.3,132.3-363.6z"/>
			<path fill="#B6B6B6" d="M115-334.7c-32.6,0-65.2,0-97.8,0c0.1-0.3,0.1-0.6,0.2-0.9c32.6,0,65.2,0,97.8,0
				C115.1-335.3,115.1-335,115-334.7z"/>
			<path fill="#B6B6B6" d="M105.4-147.1c-34.8-0.6-69.6-1.2-104.4-1.8c2.2-0.8,4.4-1.6,6.6-2.4c32.3,1.4,64.6,2.9,97,4.3
				L105.4-147.1z"/>
			<path fill="#B6B6B6" d="M340.3-124.3c-30.6,0-61.2,0-91.8,0c0.1-0.3,0.1-0.7,0.2-1c31.7,0,63.3,0,95,0
				C342.5-125,341.4-124.7,340.3-124.3z"/>
			<path fill="#B6B6B6" d="M325.8-340.7c-32.6,0-65.2,0-97.9,0c0-0.3,0.1-0.6,0.1-0.9c32.6,0,65.2,0,97.9,0
				C325.9-341.3,325.9-341,325.8-340.7z"/>
			<path fill="#B6B6B6" d="M114.7-128.3c10.7,0.6,19.9,1.1,29.1,1.6c-8.5,0.9-18.8,2.6-25.1,2.4c-12.8-0.3-23.4-1.6-34.9-2.5
				C93.4-127.3,103.1-127.8,114.7-128.3z"/>
			<path fill="#B6B6B6" d="M19.2-169.4c26.1,0,52.3,0,78.4,0c-0.1,0.3-0.2,0.7-0.2,1c-26.4,0-52.7,0-79.1,0
				C18.6-168.8,18.9-169.1,19.2-169.4z"/>
			<path fill="#B6B6B6" d="M63.8-250.7c23.3-0.5,46.6-1.1,69.8-1.6c0.8,0.8,1.5,1.6,2.3,2.5c-23.5-0.3-47-0.7-70.4-1L63.8-250.7z"/>
			<path fill="#B6B6B6" d="M165.8-74.4c-28.5,1.1-57,2.2-85.4,3.4c-1.7-0.8-3.4-1.5-5.1-2.3c31.1-0.3,62.2-0.5,93.4-0.8
				C168.8-74.1,165.8-74.4,165.8-74.4z"/>
			<path fill="#B6B6B6" d="M15.9-305.6c25.7,0,51.3,0,77,0c0.1,0.3,0.2,0.5,0.2,0.8c-25.7,0-51.4,0-77.1,0
				C16-305,16-305.3,15.9-305.6z"/>
			<path fill="#B6B6B6" d="M387-86.4c-22.3,0-44.6,0-67,0c0-0.3,0-0.7,0-1c22.3,0,44.6,0,67,0C387-87,387-86.7,387-86.4z"/>
			<path fill="#B6B6B6" d="M75.9-392.6c-20,0-40,0-60,0c-0.1-0.4-0.2-0.7-0.3-1.1c20.8-0.1,41.6-0.2,62.4-0.4
				C77.2-393.6,76.5-393.1,75.9-392.6z"/>
			<path fill="#B6B6B6" d="M78.3-44.2c-20,0-40.1,0-60.1,0c-0.2-0.4-0.4-0.7-0.7-1.1c19.4-0.2,38.9-0.3,58.3-0.5
				C76.7-45.2,77.5-44.7,78.3-44.2z"/>
			<path fill="#B6B6B6" d="M320.5-119.4c22.2,0,44.4,0,66.6,0c0,0.3,0,0.6,0,0.9c-22.2,0-44.4,0-66.6,0
				C320.5-118.8,320.5-119.1,320.5-119.4z"/>
			<path fill="#B6B6B6" d="M188.9-32.7c-13.3,1.2-21.4,2.3-31.5,2.6c-5.3,0.1-14.3-1.3-21.6-2c9.2-0.5,17.8-1.3,27.7-1.5
				C169.1-33.8,176.7-33.2,188.9-32.7z"/>
			<path fill="#B6B6B6" d="M75.9-281.7c19.9,0,39.9,0,59.8,0c0.1,0.4,0.3,0.7,0.4,1.1c-20.7,0.1-41.4,0.3-62.1,0.4
				C74.7-280.7,75.3-281.2,75.9-281.7z"/>
			<path fill="#B6B6B6" d="M186.8-372.7c-24.8,0-40.4,0-55.9,0c10.6-0.4,20.8-1,31.8-1.3C166.9-374.1,172.6-373.5,186.8-372.7z"/>
			<path fill="#B6B6B6" d="M67.1-298.9c22.6-0.4,45.1-0.8,67.7-1.1c0.1,0.6,0.2,1.3,0.3,1.9c-22.9-0.3-45.8-0.6-68.9-0.9
				C66.1-299,67.1-298.9,67.1-298.9z"/>
			<path fill="#B6B6B6" d="M307.2-280.1c-15.5-0.1-30.9-0.3-46.4-0.4c0.2-0.3,0.3-0.7,0.5-1c16.3,0,32.5,0,48.8,0
				C309.2-281.1,308.2-280.6,307.2-280.1z"/>
			<path fill="#B6B6B6" d="M16.6-364.1c15.5,0.1,30.9,0.3,46.4,0.4c-0.2,0.3-0.3,0.7-0.5,1c-16.3,0-32.5,0-48.8,0
				C14.6-363.1,15.6-363.6,16.6-364.1z"/>
			<path fill="#B6B6B6" d="M392.5-154.8c-2.1,1.6-3.8,3.2-7.5,4.7c-0.3,0.1-16.1-0.2-24.7-0.3c11-1.5,21.9-2.9,33-4.4
				C393.4-154.9,392.5-154.8,392.5-154.8z"/>
			<path fill="#B6B6B6" d="M69.2-269.6c16.3,0,32.7,0,49,0c0,0.3,0.1,0.6,0.1,0.9c-16.4,0-32.7,0-49.1,0
				C69.3-269,69.3-269.3,69.2-269.6z"/>
			<path fill="#B6B6B6" d="M58-256.8c-13.7,1.1-24.1,2.3-28,2.1c-9.9-0.5-16.8-1.6-24.9-2.5c8.4-0.3,16.7-0.7,25.1-0.7
				C36.7-257.9,43.3-257.4,58-256.8z"/>
			<path fill="#B6B6B6" d="M101.3-26.3c-16.3,0-32.7,0-49,0c0-0.3-0.1-0.6-0.1-0.9c16.4,0,32.7,0,49.1,0
				C101.2-26.9,101.2-26.6,101.3-26.3z"/>
			<path fill="#B6B6B6" d="M324.9-372c29.1,0.3,45.3,0.4,61.5,0.6c-11.6,0.4-22.9,0.9-34.8,1.1C347.4-370.2,342-370.9,324.9-372z"/>
			<path fill="#B6B6B6" d="M350.1-263.3c10.9-0.3,19.1-0.6,27.4-0.6c4.8,0,9.6,0.6,14.4,0.9c-8.1,0.3-16.1,0.7-24.3,0.8
				C362.9-262.2,357.8-262.8,350.1-263.3z"/>
			<path fill="#B6B6B6" d="M275.3-264.1c6.3,0.3,13.7,0.7,21.1,1.1c-5.1,0.3-10.5,0.8-15.2,0.8c-8-0.1-15.7-0.6-23.4-0.9
				C262.8-263.4,267.9-263.7,275.3-264.1z"/>
			<path fill="#B6B6B6" d="M371.2-326.2c6.3,0.3,13.7,0.7,21.1,1.1c-5.1,0.3-10.5,0.8-15.2,0.8c-8-0.1-15.7-0.6-23.4-0.9
				C358.7-325.5,363.7-325.7,371.2-326.2z"/>
			<path fill="#B6B6B6" d="M277.4-39.9c5.2,0.4,11.3,0.8,17.3,1.3c-5.3,0.2-11.1,0.7-15.8,0.6c-6.9-0.1-13.1-0.7-19.6-1.1
				C264.7-39.3,269.9-39.5,277.4-39.9z"/>
			<path fill="#B6B6B6" d="M158.4-393.4c10.9-0.3,19.1-0.6,27.4-0.6c4.8,0,9.6,0.6,14.4,0.9c-8.1,0.3-16.1,0.7-24.3,0.8
				C171.2-392.3,166.2-392.9,158.4-393.4z"/>
			<path fill="#B6B6B6" d="M305.4-26c-14.7-0.2-29.4-0.3-44-0.5c2.9-0.4,7.6-1.2,8.5-1.1c11.3,0.6,22,1.2,32.9,1.9
				C302.8-25.7,305.4-26,305.4-26z"/>
			<path fill="#B6B6B6" d="M66.1-299c-17.6,0.3-35.2,0.6-52.8,0.9c0.2-0.5,0.4-1,0.6-1.6c16.9,0.3,33.9,0.5,51.1,0.8
				C65.2-298.9,66.1-299,66.1-299z"/>
			<path fill="#B6B6B6" d="M104.4-147c17.6-0.3,35.2-0.6,52.8-0.9c-0.2,0.5-0.4,1-0.6,1.6c-16.9-0.3-33.9-0.5-51.1-0.8
				C105.4-147.1,104.4-147,104.4-147z"/>
			<path fill="#B6B6B6" d="M173.5-76.1c-15.1-0.1-30.2-0.2-45.3-0.3c2.4-0.4,6.3-1.2,6.9-1.2c12.1,0.5,23.8,1.2,35.5,1.8L173.5-76.1
				z"/>
			<path fill="#B6B6B6" d="M160.3-189.2c-16.1,0.4-32.2,0.8-48.3,1.2c-0.2-0.5-0.4-1-0.7-1.5c16.7,0.2,33.4,0.3,50.2,0.5
				C161.6-189.1,160.3-189.2,160.3-189.2z"/>
			<path fill="#B6B6B6" d="M334.4-203.1c17.6-0.3,35.2-0.6,52.8-0.9c-0.2,0.5-0.4,1-0.6,1.6c-16.9-0.3-33.9-0.5-51.1-0.8
				C335.3-203.2,334.4-203.1,334.4-203.1z"/>
			<path fill="#B6B6B6" d="M391.1-181.5c-4.3,0.6-6.9,1.3-9.4,1.3c-8.4,0-16.7-0.3-25.1-0.5c2.4-0.4,4.6-1.1,7.2-1.1
				C372.1-181.8,380.6-181.6,391.1-181.5z"/>
			<path fill="#B6B6B6" d="M355.8-200c4.2,0.4,9,0.9,13.9,1.4c-5.4,0.2-11.4,0.7-16,0.5c-6-0.2-10.9-0.8-16.3-1.2
				C342.8-199.5,348.1-199.7,355.8-200z"/>
			<path fill="#B6B6B6" d="M87.5-160c4.2,0.4,9,0.9,13.9,1.4c-5.4,0.2-11.4,0.7-16,0.5c-6-0.2-10.9-0.8-16.3-1.2
				C74.5-159.5,79.8-159.7,87.5-160z"/>
			<path fill="#B6B6B6" d="M373.2-136c5.2,0.4,11.3,0.8,17.3,1.3c-5.3,0.2-11.1,0.7-15.8,0.6c-6.9-0.1-13.1-0.7-19.6-1.1
				C360.5-135.4,365.7-135.6,373.2-136z"/>
			<path fill="#B6B6B6" d="M365.8-51.7c2.5,0.4,4.8,0.8,7.2,1.2c-5.5,0.1-11.1,0.3-16.6,0.3c-2.2,0-4.2-0.4-6.4-0.7
				C355.3-51.1,360.6-51.4,365.8-51.7z"/>
			<path fill="#B6B6B6" d="M237.9-353c-11.1,0.2-22.2,0.4-33.3,0.5c-0.2-0.5-0.4-0.9-0.6-1.4c10.5,0.3,21.1,0.7,31.9,1
				C236.2-352.8,237.9-353,237.9-353z"/>
			<path fill="#B6B6B6" d="M216.9-142.7c4.3-0.4,8.1-0.9,11.5-0.9c4.3,0,8.3,0.6,12.4,0.9c-2.3,0.2-4.9,0.6-6.8,0.6
				C228.5-142.2,223.2-142.5,216.9-142.7z"/>
			<path fill="#B6B6B6" d="M331.9-224.8c4.3-0.4,8.1-0.9,11.5-0.9c4.3,0,8.3,0.6,12.4,0.9c-2.3,0.2-4.9,0.6-6.8,0.6
				C343.5-224.3,338.2-224.6,331.9-224.8z"/>
			<path fill="#B6B6B6" d="M388.8-225.2c4,0.4,8,0.6,10.4,1c1.2,0.2-0.2,0.8-1,0.9c-4.2,0.1-8.6,0-12.9,0
				C386.4-223.9,387.5-224.5,388.8-225.2z"/>
			<path fill="#B6B6B6" d="M260.5-217.1c-4.6,0.3-8.8,0.8-13.2,0.8c-3.3,0-6.8-0.6-10.3-0.9c2.3-0.2,5-0.6,6.9-0.5
				C249.5-217.6,254.7-217.4,260.5-217.1z"/>
			<path fill="#B6B6B6" d="M348.2-215.8c1.4,0.4,2.9,0.8,4.3,1.3c-5.5,0-11,0.1-16.3,0c-1.6,0-2.8-0.4-4.1-0.7
				C337.4-215.4,342.8-215.6,348.2-215.8z"/>
			<path fill="#B6B6B6" d="M346.6-177.8c2.5,0.4,4.8,0.8,7.2,1.2c-5.5,0.1-11.1,0.3-16.6,0.3c-2.2,0-4.2-0.4-6.4-0.7
				C336.1-177.3,341.4-177.5,346.6-177.8z"/>
			<path fill="#B6B6B6" d="M346.6-143.7c2.5,0.4,4.8,0.8,7.2,1.2c-5.5,0.1-11.1,0.3-16.6,0.3c-2.2,0-4.2-0.4-6.4-0.7
				C336.1-143.2,341.4-143.5,346.6-143.7z"/>
			<path fill="#B6B6B6" d="M327.5-400c2.5,0.4,4.8,0.8,7.2,1.2c-5.5,0.1-11.1,0.3-16.6,0.3c-2.2,0-4.2-0.4-6.4-0.7
				C317-399.5,322.3-399.7,327.5-400z"/>
			<path fill="#B6B6B6" d="M270-303.9c2.5,0.4,4.8,0.8,7.2,1.2c-5.5,0.1-11.1,0.3-16.6,0.3c-2.2,0-4.2-0.4-6.4-0.7
				C259.5-303.4,264.8-303.7,270-303.9z"/>
			<path fill="#B6B6B6" d="M255.2-324.9c4.3-0.4,8.1-0.9,11.5-0.9c4.3,0,8.3,0.6,12.4,0.9c-2.3,0.2-4.9,0.6-6.8,0.6
				C266.8-324.4,261.5-324.7,255.2-324.9z"/>
			<path fill="#B6B6B6" d="M6.1-4.6c4.3-0.4,8.1-0.9,11.5-0.9c4.3,0,8.3,0.6,12.4,0.9C27.8-4.4,25.2-4,23.2-4
				C17.7-4.1,12.4-4.4,6.1-4.6z"/>
			<path fill="#B6B6B6" d="M290.7-143.7c1.4,0.4,2.9,0.8,4.3,1.3c-5.5,0-11,0.1-16.3,0c-1.6,0-2.8-0.4-4.1-0.7
				C280-143.3,285.3-143.5,290.7-143.7z"/>
			<path fill="#B6B6B6" d="M65.4-250.9c-11.1,0.2-22.2,0.4-33.3,0.5c-0.2-0.5-0.4-0.9-0.6-1.4c10.5,0.3,21.1,0.7,31.9,1
				C63.8-250.7,65.4-250.9,65.4-250.9z"/>
			<path fill="#B6B6B6" d="M97.5-235.8c2.5,0.4,4.8,0.8,7.2,1.2c-5.5,0.1-11.1,0.3-16.6,0.3c-2.2,0-4.2-0.4-6.4-0.7
				C87-235.3,92.3-235.6,97.5-235.8z"/>
			<path fill="#B6B6B6" d="M191.2-269.9c3.7,0.4,7.1,0.7,10.5,1c-5.4,0.2-10.7,0.5-16.3,0.5c-1.9,0-4.4-0.4-6.7-0.6
				C183-269.2,187.1-269.6,191.2-269.9z"/>
			<path fill="#B6B6B6" d="M64.3-48.5c3.5-0.4,5.9-0.8,9.5-1.1c1.9-0.1,8.1,0,8.2,0.1c0.7,0.4,0,0.9-0.3,1.3
				C76.3-48.3,70.8-48.4,64.3-48.5z"/>
			<path fill="#B6B6B6" d="M20.9-400c2.5,0.4,4.8,0.8,7.2,1.2c-5.5,0.1-11.1,0.3-16.6,0.3c-2.2,0-4.2-0.4-6.4-0.7
				C10.4-399.5,15.6-399.7,20.9-400z"/>
			<path fill="#B6B6B6" d="M170.7-75.8c9.7,0.4,19.5,0.8,29.2,1.2c-11.3,0.1-22.5,0.2-34,0.2c-0.1,0,2.9,0.3,2.7,0.3
				c1.5-0.7,3.2-1.3,4.8-2C173.5-76.1,170.7-75.8,170.7-75.8z"/>
			<path fill="#B6B6B6" d="M137.4-217.8c1.4,0.4,2.9,0.8,4.3,1.3c-5.5,0-11,0.1-16.3,0c-1.6,0-2.8-0.4-4.1-0.7
				C126.6-217.4,132-217.6,137.4-217.8z"/>
			<path fill="#B6B6B6" d="M174.2-335.9c2.5,0.4,4.8,0.8,7.2,1.2c-5.5,0.1-11.1,0.3-16.6,0.3c-2.2,0-4.2-0.4-6.4-0.7
				C163.7-335.4,168.9-335.7,174.2-335.9z"/>
			<path fill="#B6B6B6" d="M6.1-226.8c4.3-0.4,8.1-0.9,11.5-0.9c4.3,0,8.3,0.6,12.4,0.9c-2.3,0.2-4.9,0.6-6.8,0.6
				C17.7-226.3,12.4-226.6,6.1-226.8z"/>
			<path fill="#B6B6B6" d="M140.9-226.7c3.5-0.4,5.9-0.8,9.5-1.1c1.9-0.1,8.1,0,8.2,0.1c0.7,0.4,0,0.9-0.3,1.3
				C152.9-226.4,147.5-226.6,140.9-226.7z"/>
			<path fill="#B6B6B6" d="M20.9-374c2.5,0.4,4.8,0.8,7.2,1.2c-5.5,0.1-11.1,0.3-16.6,0.3c-2.2,0-4.2-0.4-6.4-0.7
				C10.4-373.5,15.6-373.7,20.9-374z"/>
			<path fill="#B6B6B6" d="M6.8-86.6c3.5-0.4,5.9-0.8,9.5-1.1c1.9-0.1,8.1,0,8.2,0.1c0.7,0.4,0,0.9-0.3,1.3
				C18.8-86.3,13.3-86.4,6.8-86.6z"/>
			<path fill="#B6B6B6" d="M6.1-260.8c4.3-0.4,8.1-0.9,11.5-0.9c4.3,0,8.3,0.6,12.4,0.9c-2.3,0.2-4.9,0.6-6.8,0.6
				C17.7-260.4,12.4-260.6,6.1-260.8z"/>
			<path fill="#B6B6B6" d="M47.3-21.5c1.9,0.2,5.5,0.5,5.4,0.7c-0.1,0.2-4.1,0.6-6.1,0.6c-2.1,0-3.9-0.4-5.9-0.6
				C42.9-21.1,45.1-21.3,47.3-21.5z"/>
			<path fill="#B6B6B6" d="M47.3-39.5c1.9,0.2,5.5,0.5,5.4,0.7c-0.1,0.2-4,0.4-6.2,0.6c-1.9-0.2-3.9-0.5-5.8-0.7
				C42.9-39.1,45.1-39.3,47.3-39.5z"/>
			<path fill="#B6B6B6" d="M55.4-192.3c-1.9,0.6-3.9,1.1-5.8,1.7c2.8-0.5,5.6-0.9,8.4-1.4C58-192,55.4-192.3,55.4-192.3z"/>
			<path fill="#B6B6B6" d="M9-217.7c1.9,0.2,5.5,0.5,5.4,0.7c-0.1,0.2-4.1,0.6-6.1,0.6c-2.1,0-3.9-0.4-5.9-0.6
				C4.6-217.2,6.8-217.4,9-217.7z"/>
			<path fill="#B6B6B6" d="M72.3-261c-2.2,0.2-4.5,0.6-6.6,0.6c-2.1,0-5.5-0.4-5.4-0.6c0.1-0.2,4-0.4,6.2-0.6
				C68.4-261.5,70.3-261.2,72.3-261z"/>
			<path fill="#B6B6B6" d="M28.2-265.7c1.9,0.2,5.5,0.5,5.4,0.7c-0.1,0.2-4,0.4-6.2,0.6c-1.9-0.2-3.9-0.5-5.8-0.7
				C23.8-265.3,26-265.5,28.2-265.7z"/>
			<path fill="#B6B6B6" d="M14.8-353.1c-2.2,0.2-4.5,0.6-6.6,0.6c-2.1,0-5.5-0.4-5.4-0.6c0.1-0.2,4-0.4,6.2-0.6
				C10.9-353.6,12.9-353.3,14.8-353.1z"/>
			<path fill="#B6B6B6" d="M366.5-303.1c2.2-0.2,4.5-0.6,6.6-0.6c2.1,0,3.9,0.4,5.9,0.6c-2.2,0.2-4.4,0.4-6.6,0.6
				C370.4-302.7,368.4-302.9,366.5-303.1z"/>
			<path fill="#B6B6B6" d="M398.1-110.9c-2.2,0.2-4.5,0.6-6.6,0.6c-2.1,0-5.5-0.4-5.4-0.6c0.1-0.2,4-0.4,6.2-0.6
				C394.2-111.3,396.1-111.1,398.1-110.9z"/>
			<path fill="#B6B6B6" d="M385.7-143c2.2-0.2,4.5-0.6,6.6-0.6c2.1,0,3.9,0.4,5.9,0.6c-2.2,0.2-4.4,0.4-6.6,0.6
				C389.5-142.5,387.6-142.7,385.7-143z"/>
			<path fill="#B6B6B6" d="M9-281.7c1.9,0.2,5.5,0.5,5.4,0.7c-0.1,0.2-4,0.4-6.2,0.6c-1.9-0.2-3.9-0.5-5.8-0.7
				C4.6-281.3,6.8-281.5,9-281.7z"/>
			<path fill="#B6B6B6" d="M398.1-287c-2.2,0.2-4.5,0.6-6.6,0.6c-2.1,0-5.5-0.4-5.4-0.6c0.1-0.2,4-0.4,6.2-0.6
				C394.2-287.5,396.1-287.3,398.1-287z"/>
			<path fill="#B6B6B6" d="M392.3-387.8c1.9,0.2,5.5,0.5,5.4,0.7c-0.1,0.2-4.1,0.6-6.1,0.6c-2.1,0-3.9-0.4-5.9-0.6
				C387.8-387.4,390-387.6,392.3-387.8z"/>
			<path fill="#B6B6B6" d="M392.3-399.8c1.9,0.2,5.5,0.5,5.4,0.7c-0.1,0.2-4.1,0.6-6.1,0.6c-2.1,0-3.9-0.4-5.9-0.6
				C387.8-399.4,390-399.6,392.3-399.8z"/>
			<path fill="#B6B6B6" d="M9-49.5c1.9,0.2,5.5,0.5,5.4,0.7c-0.1,0.2-4,0.4-6.2,0.6c-1.9-0.2-3.9-0.5-5.8-0.7
				C4.6-49.1,6.8-49.3,9-49.5z"/>
			<path fill="#B6B6B6" d="M174.9-341.2c2.2-0.2,4.5-0.6,6.6-0.6c2.1,0,3.9,0.4,5.9,0.6c-2.2,0.2-4.4,0.4-6.6,0.6
				C178.7-340.7,176.8-340.9,174.9-341.2z"/>
			<path fill="#B6B6B6" d="M174.9-281.1c2.2-0.2,4.5-0.6,6.6-0.6c2.1,0,3.9,0.4,5.9,0.6c-2.2,0.2-4.4,0.4-6.6,0.6
				C178.7-280.6,176.8-280.9,174.9-281.1z"/>
			<path fill="#B6B6B6" d="M181.5-247.7c1.9,0.2,5.5,0.5,5.4,0.7c-0.1,0.2-4.1,0.6-6.1,0.6c-2.1,0-3.9-0.4-5.9-0.6
				C177-247.3,179.2-247.5,181.5-247.7z"/>
			<path fill="#B6B6B6" d="M9-55.5c1.9,0.2,5.5,0.5,5.4,0.7c-0.1,0.2-4.1,0.6-6.1,0.6c-2.1,0-3.9-0.4-5.9-0.6
				C4.6-55.1,6.8-55.3,9-55.5z"/>
			<path fill="#B6B6B6" d="M9-33.5c1.9,0.2,5.5,0.5,5.4,0.7c-0.1,0.2-4,0.4-6.2,0.6c-1.9-0.2-3.9-0.5-5.8-0.7
				C4.6-33.1,6.8-33.3,9-33.5z"/>
			<path fill="#B6B6B6" d="M258.1-57.5c1.9,0.2,5.5,0.5,5.4,0.7c-0.1,0.2-4.1,0.6-6.1,0.6c-2.1,0-3.9-0.4-5.9-0.6
				C253.7-57.1,255.9-57.3,258.1-57.5z"/>
			<path fill="#B6B6B6" d="M162.3-223.7c1.9,0.2,5.5,0.5,5.4,0.7c-0.1,0.2-4.1,0.6-6.1,0.6c-2.1,0-3.9-0.4-5.9-0.6
				C157.9-223.3,160.1-223.5,162.3-223.7z"/>
			<path fill="#B6B6B6" d="M258.1-119.6c1.9,0.2,5.5,0.5,5.4,0.7c-0.1,0.2-4.1,0.6-6.1,0.6c-2.1,0-3.9-0.4-5.9-0.6
				C253.7-119.1,255.9-119.4,258.1-119.6z"/>
			<path fill="#B6B6B6" d="M143.2-49.5c1.9,0.2,5.5,0.5,5.4,0.7c-0.1,0.2-4,0.4-6.2,0.6c-1.9-0.2-3.9-0.5-5.8-0.7
				C138.8-49.1,141-49.3,143.2-49.5z"/>
			<path fill="#B6B6B6" d="M124-393.8c1.9,0.2,5.5,0.5,5.4,0.7c-0.1,0.2-4.1,0.6-6.1,0.6c-2.1,0-3.9-0.4-5.9-0.6
				C119.5-393.4,121.8-393.6,124-393.8z"/>
			<path fill="#B6B6B6" d="M9-91.5c1.9,0.2,5.5,0.5,5.4,0.7c-0.1,0.2-4,0.4-6.2,0.6c-1.9-0.2-3.9-0.5-5.8-0.7
				C4.6-91.1,6.8-91.3,9-91.5z"/>
			<path fill="#B6B6B6" d="M289.8-6.8c2.2-0.2,4.5-0.6,6.6-0.6c2.1,0,3.9,0.4,5.9,0.6c-2.2,0.2-4.4,0.4-6.6,0.6
				C293.7-6.4,291.8-6.6,289.8-6.8z"/>
			<path fill="#B6B6B6" d="M124-341.8c1.9,0.2,5.5,0.5,5.4,0.7c-0.1,0.2-4.1,0.6-6.1,0.6c-2.1,0-3.9-0.4-5.9-0.6
				C119.5-341.4,121.8-341.6,124-341.8z"/>
			<path fill="#B6B6B6" d="M296.4-223.7c1.9,0.2,5.5,0.5,5.4,0.7c-0.1,0.2-4.1,0.6-6.1,0.6c-2.1,0-3.9-0.4-5.9-0.6
				C292-223.3,294.2-223.5,296.4-223.7z"/>
			<path fill="#B6B6B6" d="M302.8-25.7c5.4,0.2,10.8,0.4,16.2,0.6c-4.5-0.3-9-0.6-13.6-0.9C305.4-26,302.8-25.7,302.8-25.7z"/>
			<path fill="#B6B6B6" d="M104.8-33.5c1.9,0.2,5.5,0.5,5.4,0.7c-0.1,0.2-4.1,0.6-6.1,0.6c-2.1,0-3.9-0.4-5.9-0.6
				C100.4-33.1,102.6-33.3,104.8-33.5z"/>
			<path fill="#B6B6B6" d="M104.8-21.5c1.9,0.2,5.5,0.5,5.4,0.7c-0.1,0.2-4.1,0.6-6.1,0.6c-2.1,0-3.9-0.4-5.9-0.6
				C100.4-21.1,102.6-21.3,104.8-21.5z"/>
			<path fill="#B6B6B6" d="M85.7-39.5c1.9,0.2,5.5,0.5,5.4,0.7c-0.1,0.2-4,0.4-6.2,0.6c-1.9-0.2-3.9-0.5-5.8-0.7
				C81.3-39.1,83.5-39.3,85.7-39.5z"/>
			<path fill="#B6B6B6" d="M334.8-7.4c1.9,0.2,5.5,0.5,5.4,0.7c-0.1,0.2-4,0.4-6.2,0.6c-1.9-0.2-3.9-0.5-5.8-0.7
				C330.4-7,332.6-7.2,334.8-7.4z"/>
			<path fill="#B6B6B6" d="M59.9-399.2c2.2-0.2,4.5-0.6,6.6-0.6c2.1,0,3.9,0.4,5.9,0.6c-2.2,0.2-4.4,0.4-6.6,0.6
				C63.8-398.8,61.8-399,59.9-399.2z"/>
		</g>
	</g>
</pattern>
<g display="none">
	<g display="inline">
		
			<image overflow="visible" enable-background="new    " width="12" height="350" xlink:href="BCFE26D21EE1E2E5.jpg"  transform="matrix(1.5135 0 0 1.5135 143.9639 18.2703)">
		</image>
	</g>
</g>
<g display="none">
	<g display="inline">
		
			<image overflow="visible" enable-background="new    " width="12" height="350" xlink:href="BCFE26D21EE1E2E7.jpg"  transform="matrix(1.5135 0 0 1.5135 253.6936 18.2703)">
		</image>
	</g>
</g>
<g display="none">
	<g display="inline">
		
			<image overflow="visible" enable-background="new    " width="12" height="359" xlink:href="BCFE26D21EE1E2E2.jpg"  transform="matrix(1.5135 0 0 1.4966 363.4234 10.7027)">
		</image>
	</g>
</g>
<g display="none">
	<g display="inline">
		
			<image overflow="visible" enable-background="new    " width="12" height="350" xlink:href="BCFE26D21EE1E2E3.jpg"  transform="matrix(1.5135 0 0 1.5135 473.1531 18.2703)">
		</image>
	</g>
</g>
<g display="none">
	<g>
		
			<image display="inline" overflow="visible" enable-background="new    " width="12" height="355" xlink:href="BCFE26D21EE1E2ED.jpg"  transform="matrix(1.5135 0 0 1.5135 582.8829 10.7027)">
		</image>
	</g>
</g>
<g display="none">
	<g display="inline">
		
			<image overflow="visible" enable-background="new    " width="12" height="355" xlink:href="BCFE26D21EE1E2EF.jpg"  transform="matrix(1.5135 0 0 1.5135 692.6126 10.7027)">
		</image>
	</g>
</g>
<g display="none">
	<g display="inline">
		
			<image overflow="visible" enable-background="new    " width="12" height="350" xlink:href="BCFE26D21EE1E2E0.jpg"  transform="matrix(1.5135 0 0 1.5135 802.3423 18.2703)">
		</image>
	</g>
</g>
<g display="none">
	<g display="inline">
		<path fill="none" stroke="#463937" stroke-width="40" stroke-miterlimit="10" d="M927.7,544.9H32.3c-1.8,0-3.3-1.5-3.3-3.3V18.5
			c0-1.8,1.5-3.3,3.3-3.3h895.5c1.8,0,3.3,1.5,3.3,3.3v523.2C931,543.4,929.5,544.9,927.7,544.9z"/>
		<path fill="none" stroke="#463937" stroke-width="40" stroke-miterlimit="10" d="M29,219.5H931H29z"/>
	</g>
	<g display="inline" opacity="0.3">
		<path fill="none" stroke="url(#Dark_Wood_Grain_Horizontal)" stroke-width="40" d="M927.7,544.9H32.3c-1.8,0-3.3-1.5-3.3-3.3V18.5
			c0-1.8,1.5-3.3,3.3-3.3h895.5c1.8,0,3.3,1.5,3.3,3.3v523.2C931,543.4,929.5,544.9,927.7,544.9z"/>
		<path fill="none" stroke="url(#Dark_Wood_Grain_Horizontal)" stroke-width="40" d="M29,219.5H931H29z"/>
	</g>
</g>
<g display="none">
	<path display="inline" fill="#534741" d="M1530,315.5c13.4,1,26.8,2,54.9,4.1c-133-0.8-251-1.4-368.8-2.3
		c-10-0.1-18.8-1.9-28.1-2.9c10.5-0.9,21.1-2.7,31.4-2.6c69.5,0.1,138.9,0.7,208.4,1.1l-1.3-0.1c35.4,1.1,70.8,2.1,106.2,3.2
		C1532.6,315.8,1530,315.5,1530,315.5z M1225,313.6c17.1,1.1,22.5,1.7,26.7,1.7c11.9-0.2,23.2-0.7,34.8-1.1
		C1270.3,314,1254.1,313.9,1225,313.6z"/>
	<path display="inline" fill="#534741" d="M1352.6,186.7c-29.1,1.8-56.4,4.2-87.8,5.2c-18.1,0.6-42.8-1.2-64.5-1.9
		c16.4-1.6,31.2-4.2,49.6-4.5c68.1-1.1,137.2-1.7,206.2-2.1c17.2-0.1,50.3,1.1,50.3,1.7c-0.3,3.2-20.5,4.9-51.6,4.2
		c-35-0.8-69.4-1.8-103.9-2.7c11.2,0.2,22.2,0.3,33.2,0.4c-0.1-0.4-0.2-0.9-0.3-1.3C1373.3,186,1363,186.4,1352.6,186.7z"/>
	<path display="inline" fill="#534741" d="M1190.9,360.2c63.9-9.9,188.9-5.4,196.9-4c47.7,8.3,124,3.7,178.1,8.2
		C1444.2,363,1322.4,361.7,1190.9,360.2z"/>
	<path display="inline" fill="#534741" d="M1207.6,225.8c120.5,0,241,0,361.5,0c0.3,0.7,0.6,1.5,1,2.2c-120.4,0.7-240.8,1.3-361.2,2
		C1208.4,228.5,1208,227.2,1207.6,225.8z"/>
	<path display="inline" fill="#534741" d="M1252.7,326.7c76.8,7.9,165.4,3.9,251.6,2.9c26.8-0.3,54.5,0.3,83.7,2.5
		c-17.9,0.5-35.8,1.3-53.8,1.3c-103.6,0.1-207.2,0.1-310.7,0c-11.6,0-23-1.4-34.5-2.2c16-0.4,31.9-0.7,48.2-1.1
		c10.9,0.3,21.4,0.7,31.9,1c-0.2-0.5-0.4-0.9-0.6-1.4c-11.1,0.2-22.2,0.4-33.3,0.5c6.2-1.3,12.3-2.5,18.5-3.8L1252.7,326.7z"/>
	<path display="inline" fill="#534741" d="M1207,261.9c125.7-0.8,251.4-1.6,377.1-2.4c0.3,1,0.7,1.9,1,2.9c-126,0-252,0-378,0
		C1207.1,262.3,1207,262.1,1207,261.9z"/>
	<path display="inline" fill="#534741" d="M1199.7,430.8c106.7,0.5,213.5,1.1,320.2,1.6c-0.5,1.1-1.1,2.2-1.6,3.4
		c-106.5-0.8-213.1-1.6-319.6-2.4C1199,432.5,1199.4,431.7,1199.7,430.8z"/>
	<path display="inline" fill="#534741" d="M1194.6,278.3c32.1,0.6,64.1,1.3,96,1.9c-11.2-0.2-22.2-0.3-33.2-0.4
		c0.1,0.4,0.2,0.9,0.3,1.3c10.3-0.4,20.7-0.7,31-1.1c49.4,0.3,98.7,0.6,148.1,1c-0.4,0.8-0.9,1.6-1.3,2.4c-68,0-136.2,0.3-203.9-0.2
		c-13.1-0.1-24.2-3.2-36.2-4.9L1194.6,278.3z"/>
	<path display="inline" fill="#534741" d="M1191.5,500.5c119.1,0,238.2,0,357.3,0c0.1,0.5,0.2,1.1,0.3,1.6c-119.1,0-238.2,0-357.4,0
		C1191.6,501.6,1191.6,501,1191.5,500.5z"/>
	<path display="inline" fill="#534741" d="M1568.3,123.5c-170.8,3.4-170.8,3.4-209.5,0C1430.2,123.5,1499.3,123.5,1568.3,123.5z
		 M1431.4,127.1c5.4-0.2,10.8-0.4,16.1-0.6c-1.4-0.2-2.5-0.6-4.1-0.7c-5.4-0.1-10.9,0-16.3,0C1428.5,126.2,1430,126.6,1431.4,127.1z
		"/>
	<path display="inline" fill="#534741" d="M1563.4,308.9c-118.4,0-236.9,0-355.3,0c0-0.3,0.1-0.7,0.1-1c119.2,0,238.5,0,357.7,0
		C1565.1,308.2,1564.2,308.6,1563.4,308.9z"/>
	<path display="inline" fill="#534741" d="M1521.9,422.5c-82.7-1.3-165.5-2.7-232.4-3.8c78.8,0,176.8,0,272.2,0
		C1552.5,419.6,1537.2,421,1521.9,422.5l0.9-0.1l-1.9,0L1521.9,422.5z"/>
	<path display="inline" fill="#534741" d="M1527.7,214.9c-106.5,0-212.9,0-319.4,0c0-0.3-0.1-0.7-0.1-1c105.6,0,211.2,0,316.8,0
		C1525.9,214.3,1526.8,214.6,1527.7,214.9z"/>
	<path display="inline" fill="#534741" d="M1351.8,476.3c-50.5-0.4-101-0.7-151.5-1.1c-1-0.7-2-1.4-3.1-2.2
		c60.5-0.6,120.9-1.1,190.4-1.8c-17.1,2.4-27.3,3.8-37.5,5.2L1351.8,476.3z"/>
	<path display="inline" fill="#534741" d="M1286.7,204.2c80,0,160,0,240.1,0c0.3,0.4,0.6,0.8,0.9,1.2c-80,0-159.9,0-239.9,0
		C1287.4,205,1287,204.6,1286.7,204.2z"/>
	<path display="inline" fill="#534741" d="M1325.4,511.6c81,0,162,0,243,0c0,0.6,0,1.1,0,1.7c-80.8,0-161.6,0-242.4,0
		C1325.8,512.7,1325.6,512.1,1325.4,511.6z"/>
	<path display="inline" fill="#534741" d="M1335.6,156.6c-48.3,0-96.5,0-144.8,0c-0.1-0.7-0.3-1.3-0.4-2c48.3,0,96.6,0,144.8,0
		C1335.4,155.3,1335.5,156,1335.6,156.6z"/>
	<path display="inline" fill="#534741" d="M1568.5,288.9c-80.9,0-161.8,0-242.7,0c-0.1-0.3-0.1-0.6-0.2-0.8c80.9,0,161.9,0,242.8,0
		C1568.4,288.4,1568.4,288.6,1568.5,288.9z"/>
	<path display="inline" fill="#534741" d="M1450.4,168.9c-80.8,0-161.6,0-242.4,0c0-0.3-0.1-0.7-0.1-1c80.1,0,160.3,0,240.4,0
		C1449,168.2,1449.7,168.5,1450.4,168.9z"/>
	<path display="inline" fill="#534741" d="M1202.6,295.4c63.9,0,127.9,0,191.8,0c-0.1,0.5-0.2,0.9-0.3,1.4c-64.6,0-129.2,0-193.8,0
		C1201.1,296.3,1201.9,295.9,1202.6,295.4z"/>
	<path display="inline" fill="#534741" d="M1401.7,450.4c55.4,0,110.9,0,166.3,0c0.2,0.2,0.3,0.4,0.5,0.7
		c-55.4,0.7-110.9,1.3-166.3,2C1402,452.1,1401.8,451.3,1401.7,450.4z"/>
	<path display="inline" fill="#534741" d="M1567.3,445c-67.2,0-134.4,0-201.6,0c-0.2-0.2-0.3-0.5-0.5-0.7c67.2,0,134.5,0,201.7,0
		C1567.1,444.5,1567.2,444.8,1567.3,445z"/>
	<path display="inline" fill="#534741" d="M1511.4,210.9c-61.8,0-123.5,0-185.3,0c-0.1-0.3-0.1-0.6-0.2-0.9c61.8,0,123.5,0,185.3,0
		C1511.3,210.3,1511.4,210.6,1511.4,210.9z"/>
	<path display="inline" fill="#534741" d="M1284.1,468.1c55.5,0,110.9,0,166.4,0c0.1,0.3,0.1,0.6,0.2,0.8c-55.5,0-110.9,0-166.4,0
		C1284.3,468.7,1284.2,468.4,1284.1,468.1z"/>
	<path display="inline" fill="#534741" d="M1338.1,393.7c-44.2-0.9-88.4-1.9-132.6-2.8c0.5-0.5,1.1-1,1.6-1.5
		c45.8,0.5,91.5,1,137.3,1.5C1342.3,391.8,1340.2,392.7,1338.1,393.7z"/>
	<path display="inline" fill="#534741" d="M1228.4,269.9c49.5,0,98.9,0,148.4,0c0,0.3,0,0.7,0,1c-49,0-98,0-147,0
		C1229.3,270.6,1228.8,270.3,1228.4,269.9z"/>
	<path display="inline" fill="#534741" d="M1439.2,413.9c42.3,0,84.7,0,127,0c0.1,0.3,0.2,0.7,0.3,1c-42.3,0-84.7,0-127,0
		C1439.4,414.6,1439.3,414.2,1439.2,413.9z"/>
	<path display="inline" fill="#534741" d="M1219.3,198.1c34,0.5,68,1,101.9,1.5c0.2,0.4,0.3,0.8,0.5,1.2c-35.3,0-70.6,0-106,0
		C1217,199.9,1218.2,199,1219.3,198.1z"/>
	<path display="inline" fill="#534741" d="M1471.9,345.9c34.9-0.4,69.9-0.7,104.8-1.1c0.4,0.6,0.8,1.2,1.2,1.9c-35,0-70.1,0-105.1,0
		C1472.5,346.4,1472.2,346.2,1471.9,345.9z"/>
	<path display="inline" fill="#534741" d="M1510,325.1c-36.3,0-72.5,0-108.8,0c-0.2-0.3-0.4-0.7-0.6-1c36.1,0,72.2,0,108.3,0
		C1509.3,324.5,1509.7,324.8,1510,325.1z"/>
	<path display="inline" fill="#534741" d="M1478.3,240.4c36.1,0,72.1,0,108.2,0c-0.4,0.5-0.8,1-1.2,1.5c-36.7-0.3-73.5-0.6-110.2-1
		C1476.1,240.8,1477.2,240.6,1478.3,240.4z"/>
	<path display="inline" fill="#534741" d="M1575.4,137.1c-28.1,0-56.2,0-84.2,0c0-0.6,0-1.2,0-1.9c28.1,0,56.2,0,84.2,0
		C1575.4,135.8,1575.4,136.4,1575.4,137.1z"/>
	<path display="inline" fill="#534741" d="M1322.7,273.8c30.6,0,61.3,0,91.9,0c0.1,0.3,0.3,0.7,0.4,1c-30.6,0-61.3,0-91.9,0
		C1322.9,274.4,1322.8,274.1,1322.7,273.8z"/>
	<path display="inline" fill="#534741" d="M1455.8,487.1c-32.6,0-65.1,0-97.7,0c0-0.3,0-0.6-0.1-0.9c32.6,0,65.1,0,97.7,0
		C1455.7,486.5,1455.7,486.8,1455.8,487.1z"/>
	<path display="inline" fill="#534741" d="M1473,458.1c32.6,0,65.2,0,97.8,0c-0.1,0.3-0.1,0.6-0.2,0.9c-32.6,0-65.2,0-97.8,0
		C1472.9,458.8,1472.9,458.5,1473,458.1z"/>
	<path display="inline" fill="#534741" d="M1482.7,270.6c34.8,0.6,69.6,1.2,104.4,1.8c-2.2,0.8-4.4,1.6-6.6,2.4
		c-32.3-1.4-64.6-2.9-97-4.3L1482.7,270.6z"/>
	<path display="inline" fill="#534741" d="M1247.7,247.8c30.6,0,61.2,0,91.8,0c-0.1,0.3-0.1,0.7-0.2,1c-31.7,0-63.3,0-95,0
		C1245.5,248.5,1246.6,248.2,1247.7,247.8z"/>
	<path display="inline" fill="#534741" d="M1262.2,464.2c32.6,0,65.2,0,97.9,0c0,0.3-0.1,0.6-0.1,0.9c-32.6,0-65.2,0-97.9,0
		C1262.1,464.8,1262.1,464.5,1262.2,464.2z"/>
	<path display="inline" fill="#534741" d="M1473.3,251.8c-10.7-0.6-19.9-1.1-29.1-1.6c8.5-0.9,18.8-2.6,25.1-2.4
		c12.8,0.3,23.4,1.6,34.9,2.5C1494.6,250.8,1484.9,251.2,1473.3,251.8z"/>
	<path display="inline" fill="#534741" d="M1568.8,292.9c-26.1,0-52.3,0-78.4,0c0.1-0.3,0.2-0.7,0.2-1c26.4,0,52.7,0,79.1,0
		C1569.4,292.3,1569.1,292.6,1568.8,292.9z"/>
	<path display="inline" fill="#534741" d="M1524.2,374.2c-23.3,0.5-46.6,1.1-69.8,1.6c-0.8-0.8-1.5-1.6-2.3-2.5
		c23.5,0.3,47,0.7,70.4,1L1524.2,374.2z"/>
	<path display="inline" fill="#534741" d="M1422.2,197.9c28.5-1.1,57-2.2,85.4-3.4c1.7,0.8,3.4,1.5,5.1,2.3
		c-31.1,0.3-62.2,0.5-93.4,0.8C1419.2,197.6,1422.2,197.9,1422.2,197.9z"/>
	<path display="inline" fill="#534741" d="M1572.1,429.1c-25.7,0-51.3,0-77,0c-0.1-0.3-0.2-0.5-0.2-0.8c25.7,0,51.4,0,77.1,0
		C1572,428.5,1572.1,428.8,1572.1,429.1z"/>
	<path display="inline" fill="#534741" d="M1201,209.9c22.3,0,44.6,0,67,0c0,0.3,0,0.7,0,1c-22.3,0-44.6,0-67,0
		C1201,210.5,1201,210.2,1201,209.9z"/>
	<path display="inline" fill="#534741" d="M1512.1,516.1c20,0,40,0,60,0c0.1,0.4,0.2,0.7,0.3,1.1c-20.8,0.1-41.6,0.2-62.4,0.4
		C1510.8,517,1511.5,516.6,1512.1,516.1z"/>
	<path display="inline" fill="#534741" d="M1509.7,167.7c20,0,40.1,0,60.1,0c0.2,0.4,0.4,0.7,0.7,1.1c-19.4,0.2-38.9,0.3-58.3,0.5
		C1511.3,168.7,1510.5,168.2,1509.7,167.7z"/>
	<path display="inline" fill="#534741" d="M1267.5,242.9c-22.2,0-44.4,0-66.6,0c0-0.3,0-0.6,0-0.9c22.2,0,44.4,0,66.6,0
		C1267.6,242.2,1267.5,242.6,1267.5,242.9z"/>
	<path display="inline" fill="#534741" d="M1399.1,156.2c13.3-1.2,21.4-2.3,31.5-2.6c5.3-0.1,14.3,1.3,21.6,2
		c-9.2,0.5-17.8,1.3-27.7,1.5C1418.9,157.3,1411.3,156.7,1399.1,156.2z"/>
	<path display="inline" fill="#534741" d="M1512.1,405.2c-19.9,0-39.9,0-59.8,0c-0.1-0.4-0.3-0.7-0.4-1.1
		c20.7-0.1,41.4-0.3,62.1-0.4C1513.3,404.2,1512.7,404.7,1512.1,405.2z"/>
	<path display="inline" fill="#534741" d="M1401.2,496.2c24.8,0,40.4,0,55.9,0c-10.6,0.4-20.8,1-31.8,1.3
		C1421.1,497.6,1415.4,497,1401.2,496.2z"/>
	<path display="inline" fill="#534741" d="M1520.9,422.4c-22.6,0.4-45.1,0.8-67.7,1.1c-0.1-0.6-0.2-1.3-0.3-1.9
		c22.9,0.3,45.8,0.6,68.9,0.9C1521.9,422.5,1520.9,422.4,1520.9,422.4z"/>
	<path display="inline" fill="#534741" d="M1280.8,403.6c15.5,0.1,30.9,0.3,46.4,0.4c-0.2,0.3-0.3,0.7-0.5,1c-16.3,0-32.5,0-48.8,0
		C1278.8,404.6,1279.8,404.1,1280.8,403.6z"/>
	<path display="inline" fill="#534741" d="M1571.4,487.6c-15.5-0.1-30.9-0.3-46.4-0.4c0.2-0.3,0.3-0.7,0.5-1c16.3,0,32.5,0,48.8,0
		C1573.4,486.6,1572.4,487.1,1571.4,487.6z"/>
	<path display="inline" fill="#534741" d="M1195.5,278.3c2.1-1.6,3.8-3.2,7.5-4.7c0.3-0.1,16.1,0.2,24.7,0.3
		c-11,1.5-21.9,2.9-33,4.4C1194.6,278.3,1195.5,278.3,1195.5,278.3z"/>
	<path display="inline" fill="#534741" d="M1518.8,393.1c-16.3,0-32.7,0-49,0c0-0.3-0.1-0.6-0.1-0.9c16.4,0,32.7,0,49.1,0
		C1518.7,392.5,1518.7,392.8,1518.8,393.1z"/>
	<path display="inline" fill="#534741" d="M1530,380.3c13.7-1.1,24.1-2.3,28-2.1c9.9,0.5,16.8,1.6,24.9,2.5
		c-8.4,0.3-16.7,0.7-25.1,0.7C1551.3,381.4,1544.7,380.9,1530,380.3z"/>
	<path display="inline" fill="#534741" d="M1486.7,149.8c16.3,0,32.7,0,49,0c0,0.3,0.1,0.6,0.1,0.9c-16.4,0-32.7,0-49.1,0
		C1486.8,150.4,1486.8,150.1,1486.7,149.8z"/>
	<path display="inline" fill="#534741" d="M1263.1,495.5c-29.1-0.3-45.3-0.4-61.5-0.6c11.6-0.4,22.9-0.9,34.8-1.1
		C1240.6,493.7,1246,494.4,1263.1,495.5z"/>
	<path display="inline" fill="#534741" d="M1237.9,386.8c-10.9,0.3-19.1,0.6-27.4,0.6c-4.8,0-9.6-0.6-14.4-0.9
		c8.1-0.3,16.1-0.7,24.3-0.8C1225.2,385.7,1230.2,386.3,1237.9,386.8z"/>
	<path display="inline" fill="#534741" d="M1312.7,387.6c-6.3-0.3-13.7-0.7-21.1-1.1c5.1-0.3,10.5-0.8,15.2-0.8
		c8,0.1,15.7,0.6,23.4,0.9C1325.2,386.9,1320.1,387.2,1312.7,387.6z"/>
	<path display="inline" fill="#534741" d="M1216.8,449.6c-6.3-0.3-13.7-0.7-21.1-1.1c5.1-0.3,10.5-0.8,15.2-0.8
		c8,0.1,15.7,0.6,23.4,0.9C1229.4,448.9,1224.3,449.2,1216.8,449.6z"/>
	<path display="inline" fill="#534741" d="M1310.6,163.4c-5.2-0.4-11.3-0.8-17.3-1.3c5.3-0.2,11.1-0.7,15.8-0.6
		c6.9,0.1,13.1,0.7,19.6,1.1C1323.3,162.8,1318.1,163,1310.6,163.4z"/>
	<path display="inline" fill="#534741" d="M1429.6,516.9c-10.9,0.3-19.1,0.6-27.4,0.6c-4.8,0-9.6-0.6-14.4-0.9
		c8.1-0.3,16.1-0.7,24.3-0.8C1416.8,515.8,1421.8,516.4,1429.6,516.9z"/>
	<path display="inline" fill="#534741" d="M1282.6,149.5c14.7,0.2,29.4,0.3,44,0.5c-2.9,0.4-7.6,1.2-8.5,1.1
		c-11.3-0.6-22-1.2-32.9-1.9C1285.2,149.2,1282.6,149.5,1282.6,149.5z"/>
	<path display="inline" fill="#534741" d="M1521.9,422.5c17.6-0.3,35.2-0.6,52.8-0.9c-0.2,0.5-0.4,1-0.6,1.6
		c-16.9-0.3-33.9-0.5-51.1-0.8C1522.9,422.4,1521.9,422.5,1521.9,422.5z"/>
	<path display="inline" fill="#534741" d="M1483.6,270.5c-17.6,0.3-35.2,0.6-52.8,0.9c0.2-0.5,0.4-1,0.6-1.6
		c16.9,0.3,33.9,0.5,51.1,0.8C1482.7,270.6,1483.6,270.5,1483.6,270.5z"/>
	<path display="inline" fill="#534741" d="M1414.5,199.6c15.1,0.1,30.2,0.2,45.3,0.3c-2.4,0.4-6.3,1.2-6.9,1.2
		c-12.1-0.5-23.8-1.2-35.5-1.8L1414.5,199.6z"/>
	<path display="inline" fill="#534741" d="M1427.7,312.7c16.1-0.4,32.2-0.8,48.3-1.2c0.2,0.5,0.4,1,0.7,1.5
		c-16.7-0.2-33.4-0.3-50.2-0.5C1426.4,312.6,1427.7,312.7,1427.7,312.7z"/>
	<path display="inline" fill="#534741" d="M1253.6,326.6c-17.6,0.3-35.2,0.6-52.8,0.9c0.2-0.5,0.4-1,0.6-1.6
		c16.9,0.3,33.9,0.5,51.1,0.8C1252.7,326.7,1253.6,326.6,1253.6,326.6z"/>
	<path display="inline" fill="#534741" d="M1196.9,305c4.3-0.6,6.9-1.3,9.4-1.3c8.4,0,16.7,0.3,25.1,0.5c-2.4,0.4-4.6,1.1-7.2,1.1
		C1215.9,305.3,1207.4,305.1,1196.9,305z"/>
	<path display="inline" fill="#534741" d="M1232.2,323.5c-4.2-0.4-9-0.9-13.9-1.4c5.4-0.2,11.4-0.7,16-0.5c6,0.2,10.9,0.8,16.3,1.2
		C1245.2,323,1239.9,323.2,1232.2,323.5z"/>
	<path display="inline" fill="#534741" d="M1500.5,283.5c-4.2-0.4-9-0.9-13.9-1.4c5.4-0.2,11.4-0.7,16-0.5c6,0.2,10.9,0.8,16.3,1.2
		C1513.5,283,1508.2,283.2,1500.5,283.5z"/>
	<path display="inline" fill="#534741" d="M1214.8,259.5c-5.2-0.4-11.3-0.8-17.3-1.3c5.3-0.2,11.1-0.7,15.8-0.6
		c6.9,0.1,13.1,0.7,19.6,1.1C1227.5,258.9,1222.3,259.1,1214.8,259.5z"/>
	<path display="inline" fill="#534741" d="M1222.2,175.1c-2.5-0.4-4.8-0.8-7.2-1.2c5.5-0.1,11.1-0.3,16.6-0.3c2.2,0,4.2,0.4,6.4,0.7
		C1232.7,174.6,1227.4,174.9,1222.2,175.1z"/>
	<path display="inline" fill="#534741" d="M1350.1,476.5c11.1-0.2,22.2-0.4,33.3-0.5c0.2,0.5,0.4,0.9,0.6,1.4
		c-10.5-0.3-21.1-0.7-31.9-1C1351.8,476.3,1350.1,476.5,1350.1,476.5z"/>
	<path display="inline" fill="#534741" d="M1371.1,266.2c-4.3,0.4-8.1,0.9-11.5,0.9c-4.3,0-8.3-0.6-12.4-0.9
		c2.3-0.2,4.9-0.6,6.8-0.6C1359.5,265.7,1364.8,266,1371.1,266.2z"/>
	<path display="inline" fill="#534741" d="M1256.1,348.3c-4.3,0.4-8.1,0.9-11.5,0.9c-4.3,0-8.3-0.6-12.4-0.9
		c2.3-0.2,4.9-0.6,6.8-0.6C1244.5,347.8,1249.8,348.1,1256.1,348.3z"/>
	<path display="inline" fill="#534741" d="M1199.2,348.7c-4-0.4-8-0.6-10.4-1c-1.2-0.2,0.2-0.8,1-0.9c4.2-0.1,8.6,0,12.9,0
		C1201.6,347.4,1200.5,348,1199.2,348.7z"/>
	<path display="inline" fill="#534741" d="M1327.5,340.6c4.6-0.3,8.8-0.8,13.2-0.8c3.3,0,6.8,0.6,10.3,0.9c-2.3,0.2-5,0.6-6.9,0.5
		C1338.5,341.1,1333.3,340.8,1327.5,340.6z"/>
	<path display="inline" fill="#534741" d="M1239.8,339.3c-1.4-0.4-2.9-0.8-4.3-1.3c5.5,0,11-0.1,16.3,0c1.6,0,2.8,0.4,4.1,0.7
		C1250.6,338.9,1245.2,339.1,1239.8,339.3z"/>
	<path display="inline" fill="#534741" d="M1241.4,301.3c-2.5-0.4-4.8-0.8-7.2-1.2c5.5-0.1,11.1-0.3,16.6-0.3c2.2,0,4.2,0.4,6.4,0.7
		C1251.9,300.8,1246.6,301,1241.4,301.3z"/>
	<path display="inline" fill="#534741" d="M1241.4,267.2c-2.5-0.4-4.8-0.8-7.2-1.2c5.5-0.1,11.1-0.3,16.6-0.3c2.2,0,4.2,0.4,6.4,0.7
		C1251.9,266.7,1246.6,267,1241.4,267.2z"/>
	<path display="inline" fill="#534741" d="M1260.5,523.5c-2.5-0.4-4.8-0.8-7.2-1.2c5.5-0.1,11.1-0.3,16.6-0.3c2.2,0,4.2,0.4,6.4,0.7
		C1271,523,1265.8,523.2,1260.5,523.5z"/>
	<path display="inline" fill="#534741" d="M1318,427.4c-2.5-0.4-4.8-0.8-7.2-1.2c5.5-0.1,11.1-0.3,16.6-0.3c2.2,0,4.2,0.4,6.4,0.7
		C1328.5,426.9,1323.2,427.1,1318,427.4z"/>
	<path display="inline" fill="#534741" d="M1332.8,448.4c-4.3,0.4-8.1,0.9-11.5,0.9c-4.3,0-8.3-0.6-12.4-0.9
		c2.3-0.2,4.9-0.6,6.8-0.6C1321.2,447.9,1326.5,448.2,1332.8,448.4z"/>
	<path display="inline" fill="#534741" d="M1581.9,128.1c-4.3,0.4-8.1,0.9-11.5,0.9c-4.3,0-8.3-0.6-12.4-0.9
		c2.3-0.2,4.9-0.6,6.8-0.6C1570.3,127.6,1575.6,127.9,1581.9,128.1z"/>
	<path display="inline" fill="#534741" d="M1297.3,267.2c-1.4-0.4-2.9-0.8-4.3-1.3c5.5,0,11-0.1,16.3,0c1.6,0,2.8,0.4,4.1,0.7
		C1308,266.8,1302.7,267,1297.3,267.2z"/>
	<path display="inline" fill="#534741" d="M1522.6,374.4c11.1-0.2,22.2-0.4,33.3-0.5c0.2,0.5,0.4,0.9,0.6,1.4
		c-10.5-0.3-21.1-0.7-31.9-1C1524.2,374.2,1522.6,374.4,1522.6,374.4z"/>
	<path display="inline" fill="#534741" d="M1490.5,359.3c-2.5-0.4-4.8-0.8-7.2-1.2c5.5-0.1,11.1-0.3,16.6-0.3c2.2,0,4.2,0.4,6.4,0.7
		C1501,358.8,1495.7,359.1,1490.5,359.3z"/>
	<path display="inline" fill="#534741" d="M1396.8,393.4c-3.7-0.4-7.1-0.7-10.5-1c5.4-0.2,10.7-0.5,16.3-0.5c1.9,0,4.4,0.4,6.7,0.6
		C1405,392.7,1400.9,393,1396.8,393.4z"/>
	<path display="inline" fill="#534741" d="M1523.7,172c-3.5,0.4-5.9,0.8-9.5,1.1c-1.9,0.1-8.1,0-8.2-0.1c-0.7-0.4,0-0.9,0.3-1.3
		C1511.7,171.8,1517.2,171.9,1523.7,172z"/>
	<path display="inline" fill="#534741" d="M1567.1,523.5c-2.5-0.4-4.8-0.8-7.2-1.2c5.5-0.1,11.1-0.3,16.6-0.3c2.2,0,4.2,0.4,6.4,0.7
		C1577.6,523,1572.4,523.2,1567.1,523.5z"/>
	<path display="inline" fill="#534741" d="M1417.4,199.3c-9.7-0.4-19.5-0.8-29.2-1.2c11.3-0.1,22.5-0.2,34-0.2
		c0.1,0-2.9-0.3-2.7-0.3c-1.5,0.7-3.2,1.3-4.8,2C1414.5,199.6,1417.4,199.3,1417.4,199.3z"/>
	<path display="inline" fill="#534741" d="M1450.6,341.3c-1.4-0.4-2.9-0.8-4.3-1.3c5.5,0,11-0.1,16.3,0c1.6,0,2.8,0.4,4.1,0.7
		C1461.4,340.9,1456,341.1,1450.6,341.3z"/>
	<path display="inline" fill="#534741" d="M1413.8,459.4c-2.5-0.4-4.8-0.8-7.2-1.2c5.5-0.1,11.1-0.3,16.6-0.3c2.2,0,4.2,0.4,6.4,0.7
		C1424.3,458.9,1419.1,459.2,1413.8,459.4z"/>
	<path display="inline" fill="#534741" d="M1581.9,350.3c-4.3,0.4-8.1,0.9-11.5,0.9c-4.3,0-8.3-0.6-12.4-0.9
		c2.3-0.2,4.9-0.6,6.8-0.6C1570.3,349.8,1575.6,350.1,1581.9,350.3z"/>
	<path display="inline" fill="#534741" d="M1447.1,350.2c-3.5,0.4-5.9,0.8-9.5,1.1c-1.9,0.1-8.1,0-8.2-0.1c-0.7-0.4,0-0.9,0.3-1.3
		C1435.1,349.9,1440.5,350,1447.1,350.2z"/>
	<path display="inline" fill="#534741" d="M1567.1,497.5c-2.5-0.4-4.8-0.8-7.2-1.2c5.5-0.1,11.1-0.3,16.6-0.3c2.2,0,4.2,0.4,6.4,0.7
		C1577.6,497,1572.4,497.2,1567.1,497.5z"/>
	<path display="inline" fill="#534741" d="M1581.2,210c-3.5,0.4-5.9,0.8-9.5,1.1c-1.9,0.1-8.1,0-8.2-0.1c-0.7-0.4,0-0.9,0.3-1.3
		C1569.2,209.8,1574.7,209.9,1581.2,210z"/>
	<path display="inline" fill="#534741" d="M1581.9,384.3c-4.3,0.4-8.1,0.9-11.5,0.9c-4.3,0-8.3-0.6-12.4-0.9
		c2.3-0.2,4.9-0.6,6.8-0.6C1570.3,383.9,1575.6,384.1,1581.9,384.3z"/>
	<path display="inline" fill="#534741" d="M1540.7,144.9c-1.9-0.2-5.5-0.5-5.4-0.7c0.1-0.2,4.1-0.6,6.1-0.6c2.1,0,3.9,0.4,5.9,0.6
		C1545.1,144.5,1542.9,144.7,1540.7,144.9z"/>
	<path display="inline" fill="#534741" d="M1540.7,163c-1.9-0.2-5.5-0.5-5.4-0.7c0.1-0.2,4-0.4,6.2-0.6c1.9,0.2,3.9,0.5,5.8,0.7
		C1545.1,162.6,1542.9,162.8,1540.7,163z"/>
	<path display="inline" fill="#534741" d="M1532.6,315.8c1.9-0.6,3.9-1.1,5.8-1.7c-2.8,0.5-5.6,0.9-8.4,1.4
		C1530,315.5,1532.6,315.8,1532.6,315.8z"/>
	<path display="inline" fill="#534741" d="M1579,341.1c-1.9-0.2-5.5-0.5-5.4-0.7c0.1-0.2,4.1-0.6,6.1-0.6c2.1,0,3.9,0.4,5.9,0.6
		C1583.4,340.7,1581.2,340.9,1579,341.1z"/>
	<path display="inline" fill="#534741" d="M1515.7,384.5c2.2-0.2,4.5-0.6,6.6-0.6c2.1,0,5.5,0.4,5.4,0.6c-0.1,0.2-4,0.4-6.2,0.6
		C1519.6,385,1517.7,384.7,1515.7,384.5z"/>
	<path display="inline" fill="#534741" d="M1559.8,389.2c-1.9-0.2-5.5-0.5-5.4-0.7c0.1-0.2,4-0.4,6.2-0.6c1.9,0.2,3.9,0.5,5.8,0.7
		C1564.2,388.8,1562,389,1559.8,389.2z"/>
	<path display="inline" fill="#534741" d="M1573.2,476.6c2.2-0.2,4.5-0.6,6.6-0.6c2.1,0,5.5,0.4,5.4,0.6c-0.1,0.2-4,0.4-6.2,0.6
		C1577.1,477,1575.2,476.8,1573.2,476.6z"/>
	<path display="inline" fill="#534741" d="M1221.5,426.6c-2.2,0.2-4.5,0.6-6.6,0.6c-2.1,0-3.9-0.4-5.9-0.6c2.2-0.2,4.4-0.4,6.6-0.6
		C1217.6,426.2,1219.6,426.4,1221.5,426.6z"/>
	<path display="inline" fill="#534741" d="M1189.9,234.3c2.2-0.2,4.5-0.6,6.6-0.6c2.1,0,5.5,0.4,5.4,0.6c-0.1,0.2-4,0.4-6.2,0.6
		C1193.8,234.8,1191.9,234.6,1189.9,234.3z"/>
	<path display="inline" fill="#534741" d="M1202.3,266.5c-2.2,0.2-4.5,0.6-6.6,0.6c-2.1,0-3.9-0.4-5.9-0.6c2.2-0.2,4.4-0.4,6.6-0.6
		C1198.5,266,1200.4,266.2,1202.3,266.5z"/>
	<path display="inline" fill="#534741" d="M1579,405.2c-1.9-0.2-5.5-0.5-5.4-0.7c0.1-0.2,4-0.4,6.2-0.6c1.9,0.2,3.9,0.5,5.8,0.7
		C1583.4,404.8,1581.2,405,1579,405.2z"/>
	<path display="inline" fill="#534741" d="M1189.9,410.5c2.2-0.2,4.5-0.6,6.6-0.6c2.1,0,5.5,0.4,5.4,0.6c-0.1,0.2-4,0.4-6.2,0.6
		C1193.8,411,1191.9,410.7,1189.9,410.5z"/>
	<path display="inline" fill="#534741" d="M1195.8,511.3c-1.9-0.2-5.5-0.5-5.4-0.7c0.1-0.2,4.1-0.6,6.1-0.6c2.1,0,3.9,0.4,5.9,0.6
		C1200.2,510.9,1198,511.1,1195.8,511.3z"/>
	<path display="inline" fill="#534741" d="M1195.8,523.3c-1.9-0.2-5.5-0.5-5.4-0.7c0.1-0.2,4.1-0.6,6.1-0.6c2.1,0,3.9,0.4,5.9,0.6
		C1200.2,522.9,1198,523.1,1195.8,523.3z"/>
	<path display="inline" fill="#534741" d="M1579,173c-1.9-0.2-5.5-0.5-5.4-0.7c0.1-0.2,4-0.4,6.2-0.6c1.9,0.2,3.9,0.5,5.8,0.7
		C1583.4,172.6,1581.2,172.8,1579,173z"/>
	<path display="inline" fill="#534741" d="M1413.1,464.7c-2.2,0.2-4.5,0.6-6.6,0.6c-2.1,0-3.9-0.4-5.9-0.6c2.2-0.2,4.4-0.4,6.6-0.6
		C1409.3,464.2,1411.2,464.4,1413.1,464.7z"/>
	<path display="inline" fill="#534741" d="M1413.1,404.6c-2.2,0.2-4.5,0.6-6.6,0.6c-2.1,0-3.9-0.4-5.9-0.6c2.2-0.2,4.4-0.4,6.6-0.6
		C1409.3,404.1,1411.2,404.4,1413.1,404.6z"/>
	<path display="inline" fill="#534741" d="M1406.6,371.2c-1.9-0.2-5.5-0.5-5.4-0.7c0.1-0.2,4.1-0.6,6.1-0.6c2.1,0,3.9,0.4,5.9,0.6
		C1411,370.8,1408.8,371,1406.6,371.2z"/>
	<path display="inline" fill="#534741" d="M1579,179c-1.9-0.2-5.5-0.5-5.4-0.7c0.1-0.2,4.1-0.6,6.1-0.6c2.1,0,3.9,0.4,5.9,0.6
		C1583.4,178.6,1581.2,178.8,1579,179z"/>
	<path display="inline" fill="#534741" d="M1579,157c-1.9-0.2-5.5-0.5-5.4-0.7c0.1-0.2,4-0.4,6.2-0.6c1.9,0.2,3.9,0.5,5.8,0.7
		C1583.4,156.6,1581.2,156.8,1579,157z"/>
	<path display="inline" fill="#534741" d="M1329.9,181c-1.9-0.2-5.5-0.5-5.4-0.7c0.1-0.2,4.1-0.6,6.1-0.6c2.1,0,3.9,0.4,5.9,0.6
		C1334.3,180.6,1332.1,180.8,1329.9,181z"/>
	<path display="inline" fill="#534741" d="M1425.7,347.1c-1.9-0.2-5.5-0.5-5.4-0.7c0.1-0.2,4.1-0.6,6.1-0.6c2.1,0,3.9,0.4,5.9,0.6
		C1430.1,346.7,1427.9,346.9,1425.7,347.1z"/>
	<path display="inline" fill="#534741" d="M1329.9,243c-1.9-0.2-5.5-0.5-5.4-0.7c0.1-0.2,4.1-0.6,6.1-0.6c2.1,0,3.9,0.4,5.9,0.6
		C1334.3,242.6,1332.1,242.8,1329.9,243z"/>
	<path display="inline" fill="#534741" d="M1444.8,173c-1.9-0.2-5.5-0.5-5.4-0.7c0.1-0.2,4-0.4,6.2-0.6c1.9,0.2,3.9,0.5,5.8,0.7
		C1449.3,172.6,1447.1,172.8,1444.8,173z"/>
	<path display="inline" fill="#534741" d="M1464,517.3c-1.9-0.2-5.5-0.5-5.4-0.7c0.1-0.2,4.1-0.6,6.1-0.6c2.1,0,3.9,0.4,5.9,0.6
		C1468.5,516.9,1466.3,517.1,1464,517.3z"/>
	<path display="inline" fill="#534741" d="M1579,215c-1.9-0.2-5.5-0.5-5.4-0.7c0.1-0.2,4-0.4,6.2-0.6c1.9,0.2,3.9,0.5,5.8,0.7
		C1583.4,214.6,1581.2,214.8,1579,215z"/>
	<path display="inline" fill="#534741" d="M1298.2,130.3c-2.2,0.2-4.5,0.6-6.6,0.6c-2.1,0-3.9-0.4-5.9-0.6c2.2-0.2,4.4-0.4,6.6-0.6
		C1294.3,129.9,1296.2,130.1,1298.2,130.3z"/>
	<path display="inline" fill="#534741" d="M1464,465.3c-1.9-0.2-5.5-0.5-5.4-0.7c0.1-0.2,4.1-0.6,6.1-0.6c2.1,0,3.9,0.4,5.9,0.6
		C1468.5,464.9,1466.3,465.1,1464,465.3z"/>
	<path display="inline" fill="#534741" d="M1291.6,347.1c-1.9-0.2-5.5-0.5-5.4-0.7c0.1-0.2,4.1-0.6,6.1-0.6c2.1,0,3.9,0.4,5.9,0.6
		C1296,346.7,1293.8,346.9,1291.6,347.1z"/>
	<path display="inline" fill="#534741" d="M1285.2,149.2c-5.4-0.2-10.8-0.4-16.2-0.6c4.5,0.3,9,0.6,13.6,0.9
		C1282.6,149.5,1285.2,149.2,1285.2,149.2z"/>
	<path display="inline" fill="#534741" d="M1483.2,157c-1.9-0.2-5.5-0.5-5.4-0.7c0.1-0.2,4.1-0.6,6.1-0.6c2.1,0,3.9,0.4,5.9,0.6
		C1487.6,156.6,1485.4,156.8,1483.2,157z"/>
	<path display="inline" fill="#534741" d="M1483.2,144.9c-1.9-0.2-5.5-0.5-5.4-0.7c0.1-0.2,4.1-0.6,6.1-0.6c2.1,0,3.9,0.4,5.9,0.6
		C1487.6,144.5,1485.4,144.7,1483.2,144.9z"/>
	<path display="inline" fill="#534741" d="M1502.3,163c-1.9-0.2-5.5-0.5-5.4-0.7c0.1-0.2,4-0.4,6.2-0.6c1.9,0.2,3.9,0.5,5.8,0.7
		C1506.7,162.6,1504.5,162.8,1502.3,163z"/>
	<path display="inline" fill="#534741" d="M1253.2,130.9c-1.9-0.2-5.5-0.5-5.4-0.7c0.1-0.2,4-0.4,6.2-0.6c1.9,0.2,3.9,0.5,5.8,0.7
		C1257.6,130.5,1255.4,130.7,1253.2,130.9z"/>
	<path display="inline" fill="#534741" d="M1528.1,522.7c-2.2,0.2-4.5,0.6-6.6,0.6c-2.1,0-3.9-0.4-5.9-0.6c2.2-0.2,4.4-0.4,6.6-0.6
		C1524.2,522.3,1526.2,522.5,1528.1,522.7z"/>
</g>
<g display="none">
	<path display="inline" fill="#B6B6B6" d="M1246,331.5c-13.4-1-26.8-2-54.9-4.1c133,0.8,251,1.4,368.8,2.3c10,0.1,18.8,1.9,28.1,2.9
		c-10.5,0.9-21.1,2.7-31.4,2.6c-69.5-0.1-138.9-0.7-208.4-1.1l1.3,0.1c-35.4-1.1-70.8-2.1-106.2-3.2
		C1243.4,331.2,1246,331.5,1246,331.5z M1551,333.4c-17.1-1.1-22.5-1.7-26.7-1.7c-11.9,0.2-23.2,0.7-34.8,1.1
		C1505.7,332.9,1521.9,333.1,1551,333.4z"/>
	<path display="inline" fill="#B6B6B6" d="M1423.4,460.2c29.1-1.8,56.4-4.2,87.8-5.2c18.1-0.6,42.8,1.2,64.5,1.9
		c-16.4,1.6-31.2,4.2-49.6,4.5c-68.1,1.1-137.2,1.7-206.2,2.1c-17.2,0.1-50.3-1.1-50.3-1.7c0.3-3.2,20.5-4.9,51.6-4.2
		c35,0.8,69.4,1.8,103.9,2.7c-11.2-0.2-22.2-0.3-33.2-0.4c0.1,0.4,0.2,0.9,0.3,1.3C1402.7,461,1413,460.6,1423.4,460.2z"/>
	<path display="inline" fill="#B6B6B6" d="M1585.1,286.8c-63.9,9.9-188.9,5.4-196.9,4c-47.7-8.3-124-3.7-178.1-8.2
		C1331.9,283.9,1453.6,285.3,1585.1,286.8z"/>
	<path display="inline" fill="#B6B6B6" d="M1568.4,421.2c-120.5,0-241,0-361.5,0c-0.3-0.7-0.6-1.5-1-2.2
		c120.4-0.7,240.8-1.3,361.2-2C1567.6,418.4,1568,419.8,1568.4,421.2z"/>
	<path display="inline" fill="#B6B6B6" d="M1523.3,320.3c-76.8-7.9-165.4-3.9-251.6-2.9c-26.8,0.3-54.5-0.3-83.7-2.5
		c17.9-0.5,35.8-1.3,53.8-1.3c103.6-0.1,207.2-0.1,310.7,0c11.6,0,23,1.4,34.5,2.2c-16,0.4-31.9,0.7-48.2,1.1
		c-10.9-0.3-21.4-0.7-31.9-1c0.2,0.5,0.4,0.9,0.6,1.4c11.1-0.2,22.2-0.4,33.3-0.5c-6.2,1.3-12.3,2.5-18.5,3.8L1523.3,320.3z"/>
	<path display="inline" fill="#B6B6B6" d="M1569.1,385c-125.7,0.8-251.4,1.6-377.1,2.4c-0.3-1-0.7-1.9-1-2.9c126,0,252,0,378,0
		C1569,384.7,1569,384.9,1569.1,385z"/>
	<path display="inline" fill="#B6B6B6" d="M1576.3,216.2c-106.7-0.5-213.5-1.1-320.2-1.6c0.5-1.1,1.1-2.2,1.6-3.4
		c106.5,0.8,213.1,1.6,319.6,2.4C1577,214.5,1576.7,215.3,1576.3,216.2z"/>
	<path display="inline" fill="#B6B6B6" d="M1581.4,368.6c-32.1-0.6-64.1-1.3-96-1.9c11.2,0.2,22.2,0.3,33.2,0.4
		c-0.1-0.4-0.2-0.9-0.3-1.3c-10.3,0.4-20.7,0.7-31,1.1c-49.4-0.3-98.7-0.6-148.1-1c0.4-0.8,0.9-1.6,1.3-2.4
		c68,0,136.2-0.3,203.9,0.2c13.1,0.1,24.2,3.2,36.2,4.9L1581.4,368.6z"/>
	<path display="inline" fill="#B6B6B6" d="M1584.5,146.5c-119.1,0-238.2,0-357.3,0c-0.1-0.5-0.2-1.1-0.3-1.6
		c119.1,0,238.2,0,357.4,0C1584.4,145.4,1584.4,146,1584.5,146.5z"/>
	<path display="inline" fill="#B6B6B6" d="M1207.7,523.5c170.8-3.4,170.8-3.4,209.5,0C1345.8,523.5,1276.8,523.5,1207.7,523.5z
		 M1344.6,519.9c-5.4,0.2-10.8,0.4-16.1,0.6c1.4,0.2,2.5,0.6,4.1,0.7c5.4,0.1,10.9,0,16.3,0C1347.5,520.7,1346,520.3,1344.6,519.9z"
		/>
	<path display="inline" fill="#B6B6B6" d="M1212.6,338.1c118.4,0,236.9,0,355.3,0c0,0.3-0.1,0.7-0.1,1c-119.2,0-238.5,0-357.7,0
		C1210.9,338.7,1211.8,338.4,1212.6,338.1z"/>
	<path display="inline" fill="#B6B6B6" d="M1254.1,224.5c82.7,1.3,165.5,2.7,232.4,3.8c-78.8,0-176.8,0-272.2,0
		C1223.6,227.4,1238.8,225.9,1254.1,224.5l-0.9,0.1l1.9,0L1254.1,224.5z"/>
	<path display="inline" fill="#B6B6B6" d="M1248.4,432.1c106.5,0,212.9,0,319.4,0c0,0.3,0.1,0.7,0.1,1c-105.6,0-211.2,0-316.8,0
		C1250.2,432.7,1249.3,432.4,1248.4,432.1z"/>
	<path display="inline" fill="#B6B6B6" d="M1424.2,170.7c50.5,0.4,101,0.7,151.5,1.1c1,0.7,2,1.4,3.1,2.2
		c-60.5,0.6-120.9,1.1-190.4,1.8c17.1-2.4,27.3-3.8,37.5-5.2L1424.2,170.7z"/>
	<path display="inline" fill="#B6B6B6" d="M1489.3,442.8c-80,0-160,0-240.1,0c-0.3-0.4-0.6-0.8-0.9-1.2c80,0,159.9,0,239.9,0
		C1488.6,442,1489,442.4,1489.3,442.8z"/>
	<path display="inline" fill="#B6B6B6" d="M1450.6,135.4c-81,0-162,0-243,0c0-0.6,0-1.1,0-1.7c80.8,0,161.6,0,242.4,0
		C1450.2,134.3,1450.4,134.9,1450.6,135.4z"/>
	<path display="inline" fill="#B6B6B6" d="M1440.4,490.3c48.3,0,96.5,0,144.8,0c0.1,0.7,0.3,1.3,0.4,2c-48.3,0-96.6,0-144.8,0
		C1440.6,491.7,1440.5,491,1440.4,490.3z"/>
	<path display="inline" fill="#B6B6B6" d="M1207.5,358c80.9,0,161.8,0,242.7,0c0.1,0.3,0.1,0.6,0.2,0.8c-80.9,0-161.9,0-242.8,0
		C1207.6,358.6,1207.6,358.3,1207.5,358z"/>
	<path display="inline" fill="#B6B6B6" d="M1325.6,478.1c80.8,0,161.6,0,242.4,0c0,0.3,0.1,0.7,0.1,1c-80.1,0-160.3,0-240.4,0
		C1327,478.8,1326.3,478.4,1325.6,478.1z"/>
	<path display="inline" fill="#B6B6B6" d="M1573.4,351.6c-63.9,0-127.9,0-191.8,0c0.1-0.5,0.2-0.9,0.3-1.4c64.6,0,129.2,0,193.8,0
		C1574.9,350.7,1574.1,351.1,1573.4,351.6z"/>
	<path display="inline" fill="#B6B6B6" d="M1374.3,196.6c-55.4,0-110.9,0-166.3,0c-0.2-0.2-0.3-0.4-0.5-0.7
		c55.4-0.7,110.9-1.3,166.3-2C1374,194.8,1374.2,195.7,1374.3,196.6z"/>
	<path display="inline" fill="#B6B6B6" d="M1208.7,202c67.2,0,134.4,0,201.6,0c0.2,0.2,0.3,0.5,0.5,0.7c-67.2,0-134.5,0-201.7,0
		C1208.9,202.4,1208.8,202.2,1208.7,202z"/>
	<path display="inline" fill="#B6B6B6" d="M1264.6,436.1c61.8,0,123.5,0,185.3,0c0.1,0.3,0.1,0.6,0.2,0.9c-61.8,0-123.5,0-185.3,0
		C1264.7,436.7,1264.7,436.4,1264.6,436.1z"/>
	<path display="inline" fill="#B6B6B6" d="M1491.9,178.8c-55.5,0-110.9,0-166.4,0c-0.1-0.3-0.1-0.6-0.2-0.8c55.5,0,110.9,0,166.4,0
		C1491.7,178.3,1491.8,178.6,1491.9,178.8z"/>
	<path display="inline" fill="#B6B6B6" d="M1437.9,253.3c44.2,0.9,88.4,1.9,132.6,2.8c-0.5,0.5-1.1,1-1.6,1.5
		c-45.8-0.5-91.5-1-137.3-1.5C1433.7,255.2,1435.8,254.2,1437.9,253.3z"/>
	<path display="inline" fill="#B6B6B6" d="M1547.6,377.1c-49.5,0-98.9,0-148.4,0c0-0.3,0-0.7,0-1c49,0,98,0,147,0
		C1546.7,376.4,1547.2,376.7,1547.6,377.1z"/>
	<path display="inline" fill="#B6B6B6" d="M1336.8,233.1c-42.3,0-84.7,0-127,0c-0.1-0.3-0.2-0.7-0.3-1c42.3,0,84.7,0,127,0
		C1336.6,232.4,1336.7,232.7,1336.8,233.1z"/>
	<path display="inline" fill="#B6B6B6" d="M1556.7,448.8c-34-0.5-68-1-101.9-1.5c-0.2-0.4-0.3-0.8-0.5-1.2c35.3,0,70.6,0,106,0
		C1559,447,1557.8,447.9,1556.7,448.8z"/>
	<path display="inline" fill="#B6B6B6" d="M1304.1,301.1c-34.9,0.4-69.9,0.7-104.8,1.1c-0.4-0.6-0.8-1.2-1.2-1.9
		c35,0,70.1,0,105.1,0C1303.5,300.5,1303.8,300.8,1304.1,301.1z"/>
	<path display="inline" fill="#B6B6B6" d="M1266,321.9c36.3,0,72.5,0,108.8,0c0.2,0.3,0.4,0.7,0.6,1c-36.1,0-72.2,0-108.3,0
		C1266.7,322.5,1266.3,322.2,1266,321.9z"/>
	<path display="inline" fill="#B6B6B6" d="M1297.7,406.6c-36.1,0-72.1,0-108.2,0c0.4-0.5,0.8-1,1.2-1.5c36.7,0.3,73.5,0.6,110.2,1
		C1299.9,406.2,1298.8,406.4,1297.7,406.6z"/>
	<path display="inline" fill="#B6B6B6" d="M1200.6,509.9c28.1,0,56.2,0,84.2,0c0,0.6,0,1.2,0,1.9c-28.1,0-56.2,0-84.2,0
		C1200.6,511.2,1200.6,510.5,1200.6,509.9z"/>
	<path display="inline" fill="#B6B6B6" d="M1453.3,373.2c-30.6,0-61.3,0-91.9,0c-0.1-0.3-0.3-0.7-0.4-1c30.6,0,61.3,0,91.9,0
		C1453.1,372.5,1453.2,372.9,1453.3,373.2z"/>
	<path display="inline" fill="#B6B6B6" d="M1320.3,159.9c32.6,0,65.1,0,97.7,0c0,0.3,0,0.6,0.1,0.9c-32.6,0-65.1,0-97.7,0
		C1320.3,160.5,1320.3,160.2,1320.3,159.9z"/>
	<path display="inline" fill="#B6B6B6" d="M1303,188.8c-32.6,0-65.2,0-97.8,0c0.1-0.3,0.1-0.6,0.2-0.9c32.6,0,65.2,0,97.8,0
		C1303.1,188.2,1303.1,188.5,1303,188.8z"/>
	<path display="inline" fill="#B6B6B6" d="M1293.4,376.4c-34.8-0.6-69.6-1.2-104.4-1.8c2.2-0.8,4.4-1.6,6.6-2.4
		c32.3,1.4,64.6,2.9,97,4.3L1293.4,376.4z"/>
	<path display="inline" fill="#B6B6B6" d="M1528.3,399.1c-30.6,0-61.2,0-91.8,0c0.1-0.3,0.1-0.7,0.2-1c31.7,0,63.3,0,95,0
		C1530.5,398.5,1529.4,398.8,1528.3,399.1z"/>
	<path display="inline" fill="#B6B6B6" d="M1513.8,182.8c-32.6,0-65.2,0-97.9,0c0-0.3,0.1-0.6,0.1-0.9c32.6,0,65.2,0,97.9,0
		C1513.9,182.2,1513.9,182.5,1513.8,182.8z"/>
	<path display="inline" fill="#B6B6B6" d="M1302.7,395.2c10.7,0.6,19.9,1.1,29.1,1.6c-8.5,0.9-18.8,2.6-25.1,2.4
		c-12.8-0.3-23.4-1.6-34.9-2.5C1281.5,396.2,1291.1,395.7,1302.7,395.2z"/>
	<path display="inline" fill="#B6B6B6" d="M1207.2,354.1c26.1,0,52.3,0,78.4,0c-0.1,0.3-0.2,0.7-0.2,1c-26.4,0-52.7,0-79.1,0
		C1206.6,354.7,1206.9,354.4,1207.2,354.1z"/>
	<path display="inline" fill="#B6B6B6" d="M1251.8,272.8c23.3-0.5,46.6-1.1,69.8-1.6c0.8,0.8,1.5,1.6,2.3,2.5
		c-23.5-0.3-47-0.7-70.4-1L1251.8,272.8z"/>
	<path display="inline" fill="#B6B6B6" d="M1353.8,449.1c-28.5,1.1-57,2.2-85.4,3.4c-1.7-0.8-3.4-1.5-5.1-2.3
		c31.1-0.3,62.2-0.5,93.4-0.8C1356.8,449.4,1353.8,449.1,1353.8,449.1z"/>
	<path display="inline" fill="#B6B6B6" d="M1203.9,217.9c25.7,0,51.3,0,77,0c0.1,0.3,0.2,0.5,0.2,0.8c-25.7,0-51.4,0-77.1,0
		C1204,218.4,1204,218.2,1203.9,217.9z"/>
	<path display="inline" fill="#B6B6B6" d="M1575,437.1c-22.3,0-44.6,0-67,0c0-0.3,0-0.7,0-1c22.3,0,44.6,0,67,0
		C1575,436.4,1575,436.8,1575,437.1z"/>
	<path display="inline" fill="#B6B6B6" d="M1263.9,130.9c-20,0-40,0-60,0c-0.1-0.4-0.2-0.7-0.3-1.1c20.8-0.1,41.6-0.2,62.4-0.4
		C1265.2,129.9,1264.5,130.4,1263.9,130.9z"/>
	<path display="inline" fill="#B6B6B6" d="M1266.3,479.3c-20,0-40.1,0-60.1,0c-0.2-0.4-0.4-0.7-0.7-1.1c19.4-0.2,38.9-0.3,58.3-0.5
		C1264.7,478.3,1265.5,478.8,1266.3,479.3z"/>
	<path display="inline" fill="#B6B6B6" d="M1508.5,404.1c22.2,0,44.4,0,66.6,0c0,0.3,0,0.6,0,0.9c-22.2,0-44.4,0-66.6,0
		C1508.5,404.7,1508.5,404.4,1508.5,404.1z"/>
	<path display="inline" fill="#B6B6B6" d="M1376.9,490.8c-13.3,1.2-21.4,2.3-31.5,2.6c-5.3,0.1-14.3-1.3-21.6-2
		c9.2-0.5,17.8-1.3,27.7-1.5C1357.2,489.7,1364.7,490.3,1376.9,490.8z"/>
	<path display="inline" fill="#B6B6B6" d="M1263.9,241.8c19.9,0,39.9,0,59.8,0c0.1,0.4,0.3,0.7,0.4,1.1c-20.7,0.1-41.4,0.3-62.1,0.4
		C1262.7,242.8,1263.3,242.3,1263.9,241.8z"/>
	<path display="inline" fill="#B6B6B6" d="M1374.8,150.7c-24.8,0-40.4,0-55.9,0c10.6-0.4,20.8-1,31.8-1.3
		C1354.9,149.4,1360.6,150,1374.8,150.7z"/>
	<path display="inline" fill="#B6B6B6" d="M1255.1,224.6c22.6-0.4,45.1-0.8,67.7-1.1c0.1,0.6,0.2,1.3,0.3,1.9
		c-22.9-0.3-45.8-0.6-68.9-0.9C1254.1,224.5,1255.1,224.6,1255.1,224.6z"/>
	<path display="inline" fill="#B6B6B6" d="M1495.2,243.4c-15.5-0.1-30.9-0.3-46.4-0.4c0.2-0.3,0.3-0.7,0.5-1c16.3,0,32.5,0,48.8,0
		C1497.2,242.4,1496.2,242.9,1495.2,243.4z"/>
	<path display="inline" fill="#B6B6B6" d="M1204.6,159.4c15.5,0.1,30.9,0.3,46.4,0.4c-0.2,0.3-0.3,0.7-0.5,1c-16.3,0-32.5,0-48.8,0
		C1202.7,160.4,1203.6,159.9,1204.6,159.4z"/>
	<path display="inline" fill="#B6B6B6" d="M1580.5,368.6c-2.1,1.6-3.8,3.2-7.5,4.7c-0.3,0.1-16.1-0.2-24.7-0.3
		c11-1.5,21.9-2.9,33-4.4C1581.4,368.6,1580.5,368.6,1580.5,368.6z"/>
	<path display="inline" fill="#B6B6B6" d="M1257.2,253.9c16.3,0,32.7,0,49,0c0,0.3,0.1,0.6,0.1,0.9c-16.4,0-32.7,0-49.1,0
		C1257.3,254.5,1257.3,254.2,1257.2,253.9z"/>
	<path display="inline" fill="#B6B6B6" d="M1246,266.7c-13.7,1.1-24.1,2.3-28,2.1c-9.9-0.5-16.8-1.6-24.9-2.5
		c8.4-0.3,16.7-0.7,25.1-0.7C1224.7,265.6,1231.3,266.1,1246,266.7z"/>
	<path display="inline" fill="#B6B6B6" d="M1289.3,497.2c-16.3,0-32.7,0-49,0c0-0.3-0.1-0.6-0.1-0.9c16.4,0,32.7,0,49.1,0
		C1289.2,496.6,1289.3,496.9,1289.3,497.2z"/>
	<path display="inline" fill="#B6B6B6" d="M1512.9,151.5c29.1,0.3,45.3,0.4,61.5,0.6c-11.6,0.4-22.9,0.9-34.8,1.1
		C1535.4,153.2,1530,152.6,1512.9,151.5z"/>
	<path display="inline" fill="#B6B6B6" d="M1538.1,260.2c10.9-0.3,19.1-0.6,27.4-0.6c4.8,0,9.6,0.6,14.4,0.9
		c-8.1,0.3-16.1,0.7-24.3,0.8C1550.9,261.3,1545.8,260.7,1538.1,260.2z"/>
	<path display="inline" fill="#B6B6B6" d="M1463.4,259.4c6.3,0.3,13.7,0.7,21.1,1.1c-5.1,0.3-10.5,0.8-15.2,0.8
		c-8-0.1-15.7-0.6-23.4-0.9C1450.8,260.1,1455.9,259.8,1463.4,259.4z"/>
	<path display="inline" fill="#B6B6B6" d="M1559.2,197.3c6.3,0.3,13.7,0.7,21.1,1.1c-5.1,0.3-10.5,0.8-15.2,0.8
		c-8-0.1-15.7-0.6-23.4-0.9C1546.7,198,1551.7,197.7,1559.2,197.3z"/>
	<path display="inline" fill="#B6B6B6" d="M1465.4,483.6c5.2,0.4,11.3,0.8,17.3,1.3c-5.3,0.2-11.1,0.7-15.8,0.6
		c-6.9-0.1-13.1-0.7-19.6-1.1C1452.7,484.2,1457.9,484,1465.4,483.6z"/>
	<path display="inline" fill="#B6B6B6" d="M1346.4,130.1c10.9-0.3,19.1-0.6,27.4-0.6c4.8,0,9.6,0.6,14.4,0.9
		c-8.1,0.3-16.1,0.7-24.3,0.8C1359.2,131.2,1354.2,130.6,1346.4,130.1z"/>
	<path display="inline" fill="#B6B6B6" d="M1493.5,497.5c-14.7-0.2-29.4-0.3-44-0.5c2.9-0.4,7.6-1.2,8.5-1.1
		c11.3,0.6,22,1.2,32.9,1.9C1490.8,497.8,1493.5,497.5,1493.5,497.5z"/>
	<path display="inline" fill="#B6B6B6" d="M1254.1,224.5c-17.6,0.3-35.2,0.6-52.8,0.9c0.2-0.5,0.4-1,0.6-1.6
		c16.9,0.3,33.9,0.5,51.1,0.8C1253.2,224.6,1254.1,224.5,1254.1,224.5z"/>
	<path display="inline" fill="#B6B6B6" d="M1292.4,376.5c17.6-0.3,35.2-0.6,52.8-0.9c-0.2,0.5-0.4,1-0.6,1.6
		c-16.9-0.3-33.9-0.5-51.1-0.8C1293.4,376.4,1292.4,376.5,1292.4,376.5z"/>
	<path display="inline" fill="#B6B6B6" d="M1361.5,447.4c-15.1-0.1-30.2-0.2-45.3-0.3c2.4-0.4,6.3-1.2,6.9-1.2
		c12.1,0.5,23.8,1.2,35.5,1.8L1361.5,447.4z"/>
	<path display="inline" fill="#B6B6B6" d="M1348.3,334.3c-16.1,0.4-32.2,0.8-48.3,1.2c-0.2-0.5-0.4-1-0.7-1.5
		c16.7,0.2,33.4,0.3,50.2,0.5C1349.6,334.4,1348.3,334.3,1348.3,334.3z"/>
	<path display="inline" fill="#B6B6B6" d="M1522.4,320.4c17.6-0.3,35.2-0.6,52.8-0.9c-0.2,0.5-0.4,1-0.6,1.6
		c-16.9-0.3-33.9-0.5-51.1-0.8C1523.3,320.3,1522.4,320.4,1522.4,320.4z"/>
	<path display="inline" fill="#B6B6B6" d="M1579.2,342c-4.3,0.6-6.9,1.3-9.4,1.3c-8.4,0-16.7-0.3-25.1-0.5c2.4-0.4,4.6-1.1,7.2-1.1
		C1560.1,341.7,1568.6,341.9,1579.2,342z"/>
	<path display="inline" fill="#B6B6B6" d="M1543.8,323.4c4.2,0.4,9,0.9,13.9,1.4c-5.4,0.2-11.4,0.7-16,0.5c-6-0.2-10.9-0.8-16.3-1.2
		C1530.8,324,1536.1,323.8,1543.8,323.4z"/>
	<path display="inline" fill="#B6B6B6" d="M1275.5,363.5c4.2,0.4,9,0.9,13.9,1.4c-5.4,0.2-11.4,0.7-16,0.5c-6-0.2-10.9-0.8-16.3-1.2
		C1262.5,364,1267.8,363.8,1275.5,363.5z"/>
	<path display="inline" fill="#B6B6B6" d="M1561.3,387.5c5.2,0.4,11.3,0.8,17.3,1.3c-5.3,0.2-11.1,0.7-15.8,0.6
		c-6.9-0.1-13.1-0.7-19.6-1.1C1548.5,388.1,1553.7,387.9,1561.3,387.5z"/>
	<path display="inline" fill="#B6B6B6" d="M1553.8,471.8c2.5,0.4,4.8,0.8,7.2,1.2c-5.5,0.1-11.1,0.3-16.6,0.3
		c-2.2,0-4.2-0.4-6.4-0.7C1543.3,472.3,1548.6,472.1,1553.8,471.8z"/>
	<path display="inline" fill="#B6B6B6" d="M1425.9,170.5c-11.1,0.2-22.2,0.4-33.3,0.5c-0.2-0.5-0.4-0.9-0.6-1.4
		c10.5,0.3,21.1,0.7,31.9,1C1424.2,170.7,1425.9,170.5,1425.9,170.5z"/>
	<path display="inline" fill="#B6B6B6" d="M1404.9,380.8c4.3-0.4,8.1-0.9,11.5-0.9c4.3,0,8.3,0.6,12.4,0.9c-2.3,0.2-4.9,0.6-6.8,0.6
		C1416.5,381.2,1411.2,381,1404.9,380.8z"/>
	<path display="inline" fill="#B6B6B6" d="M1519.9,298.7c4.3-0.4,8.1-0.9,11.5-0.9c4.3,0,8.3,0.6,12.4,0.9c-2.3,0.2-4.9,0.6-6.8,0.6
		C1531.5,299.2,1526.2,298.9,1519.9,298.7z"/>
	<path display="inline" fill="#B6B6B6" d="M1576.8,298.3c4,0.4,8,0.6,10.4,1c1.2,0.2-0.2,0.8-1,0.9c-4.2,0.1-8.6,0-12.9,0
		C1574.4,299.5,1575.5,299,1576.8,298.3z"/>
	<path display="inline" fill="#B6B6B6" d="M1448.5,306.4c-4.6,0.3-8.8,0.8-13.2,0.8c-3.3,0-6.8-0.6-10.3-0.9c2.3-0.2,5-0.6,6.9-0.5
		C1437.5,305.9,1442.7,306.1,1448.5,306.4z"/>
	<path display="inline" fill="#B6B6B6" d="M1536.2,307.7c1.4,0.4,2.9,0.8,4.3,1.3c-5.5,0-11,0.1-16.3,0c-1.6,0-2.8-0.4-4.1-0.7
		C1525.5,308.1,1530.8,307.9,1536.2,307.7z"/>
	<path display="inline" fill="#B6B6B6" d="M1534.7,345.7c2.5,0.4,4.8,0.8,7.2,1.2c-5.5,0.1-11.1,0.3-16.6,0.3
		c-2.2,0-4.2-0.4-6.4-0.7C1524.2,346.2,1529.4,346,1534.7,345.7z"/>
	<path display="inline" fill="#B6B6B6" d="M1534.7,379.7c2.5,0.4,4.8,0.8,7.2,1.2c-5.5,0.1-11.1,0.3-16.6,0.3
		c-2.2,0-4.2-0.4-6.4-0.7C1524.2,380.2,1529.4,380,1534.7,379.7z"/>
	<path display="inline" fill="#B6B6B6" d="M1515.5,123.5c2.5,0.4,4.8,0.8,7.2,1.2c-5.5,0.1-11.1,0.3-16.6,0.3
		c-2.2,0-4.2-0.4-6.4-0.7C1505,124,1510.3,123.7,1515.5,123.5z"/>
	<path display="inline" fill="#B6B6B6" d="M1458,219.6c2.5,0.4,4.8,0.8,7.2,1.2c-5.5,0.1-11.1,0.3-16.6,0.3c-2.2,0-4.2-0.4-6.4-0.7
		C1447.5,220.1,1452.8,219.8,1458,219.6z"/>
	<path display="inline" fill="#B6B6B6" d="M1443.2,198.6c4.3-0.4,8.1-0.9,11.5-0.9c4.3,0,8.3,0.6,12.4,0.9c-2.3,0.2-4.9,0.6-6.8,0.6
		C1454.8,199.1,1449.5,198.8,1443.2,198.6z"/>
	<path display="inline" fill="#B6B6B6" d="M1194.1,518.9c4.3-0.4,8.1-0.9,11.5-0.9c4.3,0,8.3,0.6,12.4,0.9c-2.3,0.2-4.9,0.6-6.8,0.6
		C1205.7,519.4,1200.4,519.1,1194.1,518.9z"/>
	<path display="inline" fill="#B6B6B6" d="M1478.7,379.8c1.4,0.4,2.9,0.8,4.3,1.3c-5.5,0-11,0.1-16.3,0c-1.6,0-2.8-0.4-4.1-0.7
		C1468,380.2,1473.3,380,1478.7,379.8z"/>
	<path display="inline" fill="#B6B6B6" d="M1253.4,272.6c-11.1,0.2-22.2,0.4-33.3,0.5c-0.2-0.5-0.4-0.9-0.6-1.4
		c10.5,0.3,21.1,0.7,31.9,1C1251.8,272.8,1253.4,272.6,1253.4,272.6z"/>
	<path display="inline" fill="#B6B6B6" d="M1285.5,287.6c2.5,0.4,4.8,0.8,7.2,1.2c-5.5,0.1-11.1,0.3-16.6,0.3
		c-2.2,0-4.2-0.4-6.4-0.7C1275,288.2,1280.3,287.9,1285.5,287.6z"/>
	<path display="inline" fill="#B6B6B6" d="M1379.2,253.6c3.7,0.4,7.1,0.7,10.5,1c-5.4,0.2-10.7,0.5-16.3,0.5c-1.9,0-4.4-0.4-6.7-0.6
		C1371,254.2,1375.1,253.9,1379.2,253.6z"/>
	<path display="inline" fill="#B6B6B6" d="M1252.3,475c3.5-0.4,5.9-0.8,9.5-1.1c1.9-0.1,8.1,0,8.2,0.1c0.7,0.4,0,0.9-0.3,1.3
		C1264.3,475.2,1258.8,475.1,1252.3,475z"/>
	<path display="inline" fill="#B6B6B6" d="M1208.9,123.5c2.5,0.4,4.8,0.8,7.2,1.2c-5.5,0.1-11.1,0.3-16.6,0.3
		c-2.2,0-4.2-0.4-6.4-0.7C1198.4,124,1203.6,123.7,1208.9,123.5z"/>
	<path display="inline" fill="#B6B6B6" d="M1358.7,447.7c9.7,0.4,19.5,0.8,29.2,1.2c-11.3,0.1-22.5,0.2-34,0.2
		c-0.1,0,2.9,0.3,2.7,0.3c1.5-0.7,3.2-1.3,4.8-2C1361.5,447.4,1358.7,447.7,1358.7,447.7z"/>
	<path display="inline" fill="#B6B6B6" d="M1325.4,305.7c1.4,0.4,2.9,0.8,4.3,1.3c-5.5,0-11,0.1-16.3,0c-1.6,0-2.8-0.4-4.1-0.7
		C1314.7,306.1,1320,305.9,1325.4,305.7z"/>
	<path display="inline" fill="#B6B6B6" d="M1362.2,187.6c2.5,0.4,4.8,0.8,7.2,1.2c-5.5,0.1-11.1,0.3-16.6,0.3
		c-2.2,0-4.2-0.4-6.4-0.7C1351.7,188.1,1356.9,187.8,1362.2,187.6z"/>
	<path display="inline" fill="#B6B6B6" d="M1194.1,296.7c4.3-0.4,8.1-0.9,11.5-0.9c4.3,0,8.3,0.6,12.4,0.9c-2.3,0.2-4.9,0.6-6.8,0.6
		C1205.7,297.2,1200.4,296.9,1194.1,296.7z"/>
	<path display="inline" fill="#B6B6B6" d="M1328.9,296.8c3.5-0.4,5.9-0.8,9.5-1.1c1.9-0.1,8.1,0,8.2,0.1c0.7,0.4,0,0.9-0.3,1.3
		C1340.9,297.1,1335.5,296.9,1328.9,296.8z"/>
	<path display="inline" fill="#B6B6B6" d="M1208.9,149.5c2.5,0.4,4.8,0.8,7.2,1.2c-5.5,0.1-11.1,0.3-16.6,0.3
		c-2.2,0-4.2-0.4-6.4-0.7C1198.4,150,1203.6,149.8,1208.9,149.5z"/>
	<path display="inline" fill="#B6B6B6" d="M1194.8,436.9c3.5-0.4,5.9-0.8,9.5-1.1c1.9-0.1,8.1,0,8.2,0.1c0.7,0.4,0,0.9-0.3,1.3
		C1206.8,437.2,1201.4,437.1,1194.8,436.9z"/>
	<path display="inline" fill="#B6B6B6" d="M1194.1,262.6c4.3-0.4,8.1-0.9,11.5-0.9c4.3,0,8.3,0.6,12.4,0.9c-2.3,0.2-4.9,0.6-6.8,0.6
		C1205.7,263.1,1200.4,262.9,1194.1,262.6z"/>
	<path display="inline" fill="#B6B6B6" d="M1235.3,502c1.9,0.2,5.5,0.5,5.4,0.7c-0.1,0.2-4.1,0.6-6.1,0.6c-2.1,0-3.9-0.4-5.9-0.6
		C1230.9,502.4,1233.1,502.2,1235.3,502z"/>
	<path display="inline" fill="#B6B6B6" d="M1235.3,484c1.9,0.2,5.5,0.5,5.4,0.7c-0.1,0.2-4,0.4-6.2,0.6c-1.9-0.2-3.9-0.5-5.8-0.7
		C1230.9,484.4,1233.1,484.2,1235.3,484z"/>
	<path display="inline" fill="#B6B6B6" d="M1243.4,331.2c-1.9,0.6-3.9,1.1-5.8,1.7c2.8-0.5,5.6-0.9,8.4-1.4
		C1246,331.5,1243.4,331.2,1243.4,331.2z"/>
	<path display="inline" fill="#B6B6B6" d="M1197,305.8c1.9,0.2,5.5,0.5,5.4,0.7c-0.1,0.2-4.1,0.6-6.1,0.6c-2.1,0-3.9-0.4-5.9-0.6
		C1192.6,306.2,1194.8,306,1197,305.8z"/>
	<path display="inline" fill="#B6B6B6" d="M1260.3,262.5c-2.2,0.2-4.5,0.6-6.6,0.6c-2.1,0-5.5-0.4-5.4-0.6c0.1-0.2,4-0.4,6.2-0.6
		C1256.4,262,1258.4,262.3,1260.3,262.5z"/>
	<path display="inline" fill="#B6B6B6" d="M1216.2,257.8c1.9,0.2,5.5,0.5,5.4,0.7c-0.1,0.2-4,0.4-6.2,0.6c-1.9-0.2-3.9-0.5-5.8-0.7
		C1211.8,258.2,1214,258,1216.2,257.8z"/>
	<path display="inline" fill="#B6B6B6" d="M1202.8,170.4c-2.2,0.2-4.5,0.6-6.6,0.6c-2.1,0-5.5-0.4-5.4-0.6c0.1-0.2,4-0.4,6.2-0.6
		C1198.9,169.9,1200.9,170.2,1202.8,170.4z"/>
	<path display="inline" fill="#B6B6B6" d="M1554.5,220.4c2.2-0.2,4.5-0.6,6.6-0.6c2.1,0,3.9,0.4,5.9,0.6c-2.2,0.2-4.4,0.4-6.6,0.6
		C1558.4,220.8,1556.5,220.6,1554.5,220.4z"/>
	<path display="inline" fill="#B6B6B6" d="M1586.1,412.6c-2.2,0.2-4.5,0.6-6.6,0.6c-2.1,0-5.5-0.4-5.4-0.6c0.1-0.2,4-0.4,6.2-0.6
		C1582.2,412.2,1584.1,412.4,1586.1,412.6z"/>
	<path display="inline" fill="#B6B6B6" d="M1573.7,380.5c2.2-0.2,4.5-0.6,6.6-0.6c2.1,0,3.9,0.4,5.9,0.6c-2.2,0.2-4.4,0.4-6.6,0.6
		C1577.6,381,1575.6,380.7,1573.7,380.5z"/>
	<path display="inline" fill="#B6B6B6" d="M1197,241.8c1.9,0.2,5.5,0.5,5.4,0.7c-0.1,0.2-4,0.4-6.2,0.6c-1.9-0.2-3.9-0.5-5.8-0.7
		C1192.6,242.2,1194.8,242,1197,241.8z"/>
	<path display="inline" fill="#B6B6B6" d="M1586.1,236.5c-2.2,0.2-4.5,0.6-6.6,0.6c-2.1,0-5.5-0.4-5.4-0.6c0.1-0.2,4-0.4,6.2-0.6
		C1582.2,236,1584.1,236.2,1586.1,236.5z"/>
	<path display="inline" fill="#B6B6B6" d="M1580.3,135.7c1.9,0.2,5.5,0.5,5.4,0.7c-0.1,0.2-4.1,0.6-6.1,0.6c-2.1,0-3.9-0.4-5.9-0.6
		C1575.8,136.1,1578.1,135.9,1580.3,135.7z"/>
	<path display="inline" fill="#B6B6B6" d="M1580.3,123.7c1.9,0.2,5.5,0.5,5.4,0.7c-0.1,0.2-4.1,0.6-6.1,0.6c-2.1,0-3.9-0.4-5.9-0.6
		C1575.8,124.1,1578.1,123.9,1580.3,123.7z"/>
	<path display="inline" fill="#B6B6B6" d="M1197,474c1.9,0.2,5.5,0.5,5.4,0.7c-0.1,0.2-4,0.4-6.2,0.6c-1.9-0.2-3.9-0.5-5.8-0.7
		C1192.6,474.4,1194.8,474.2,1197,474z"/>
	<path display="inline" fill="#B6B6B6" d="M1362.9,182.3c2.2-0.2,4.5-0.6,6.6-0.6c2.1,0,3.9,0.4,5.9,0.6c-2.2,0.2-4.4,0.4-6.6,0.6
		C1366.8,182.8,1364.8,182.6,1362.9,182.3z"/>
	<path display="inline" fill="#B6B6B6" d="M1362.9,242.4c2.2-0.2,4.5-0.6,6.6-0.6c2.1,0,3.9,0.4,5.9,0.6c-2.2,0.2-4.4,0.4-6.6,0.6
		C1366.8,242.8,1364.8,242.6,1362.9,242.4z"/>
	<path display="inline" fill="#B6B6B6" d="M1369.5,275.8c1.9,0.2,5.5,0.5,5.4,0.7c-0.1,0.2-4.1,0.6-6.1,0.6c-2.1,0-3.9-0.4-5.9-0.6
		C1365,276.2,1367.3,276,1369.5,275.8z"/>
	<path display="inline" fill="#B6B6B6" d="M1197,468c1.9,0.2,5.5,0.5,5.4,0.7c-0.1,0.2-4.1,0.6-6.1,0.6c-2.1,0-3.9-0.4-5.9-0.6
		C1192.6,468.4,1194.8,468.2,1197,468z"/>
	<path display="inline" fill="#B6B6B6" d="M1197,490c1.9,0.2,5.5,0.5,5.4,0.7c-0.1,0.2-4,0.4-6.2,0.6c-1.9-0.2-3.9-0.5-5.8-0.7
		C1192.6,490.4,1194.8,490.2,1197,490z"/>
	<path display="inline" fill="#B6B6B6" d="M1446.1,466c1.9,0.2,5.5,0.5,5.4,0.7c-0.1,0.2-4.1,0.6-6.1,0.6c-2.1,0-3.9-0.4-5.9-0.6
		C1441.7,466.4,1443.9,466.2,1446.1,466z"/>
	<path display="inline" fill="#B6B6B6" d="M1350.3,299.8c1.9,0.2,5.5,0.5,5.4,0.7c-0.1,0.2-4.1,0.6-6.1,0.6c-2.1,0-3.9-0.4-5.9-0.6
		C1345.9,300.2,1348.1,300,1350.3,299.8z"/>
	<path display="inline" fill="#B6B6B6" d="M1446.1,403.9c1.9,0.2,5.5,0.5,5.4,0.7c-0.1,0.2-4.1,0.6-6.1,0.6c-2.1,0-3.9-0.4-5.9-0.6
		C1441.7,404.3,1443.9,404.1,1446.1,403.9z"/>
	<path display="inline" fill="#B6B6B6" d="M1331.2,474c1.9,0.2,5.5,0.5,5.4,0.7c-0.1,0.2-4,0.4-6.2,0.6c-1.9-0.2-3.9-0.5-5.8-0.7
		C1326.8,474.4,1329,474.2,1331.2,474z"/>
	<path display="inline" fill="#B6B6B6" d="M1312,129.7c1.9,0.2,5.5,0.5,5.4,0.7c-0.1,0.2-4.1,0.6-6.1,0.6c-2.1,0-3.9-0.4-5.9-0.6
		C1307.6,130.1,1309.8,129.9,1312,129.7z"/>
	<path display="inline" fill="#B6B6B6" d="M1197,432c1.9,0.2,5.5,0.5,5.4,0.7c-0.1,0.2-4,0.4-6.2,0.6c-1.9-0.2-3.9-0.5-5.8-0.7
		C1192.6,432.4,1194.8,432.2,1197,432z"/>
	<path display="inline" fill="#B6B6B6" d="M1477.9,516.6c2.2-0.2,4.5-0.6,6.6-0.6c2.1,0,3.9,0.4,5.9,0.6c-2.2,0.2-4.4,0.4-6.6,0.6
		C1481.7,517.1,1479.8,516.9,1477.9,516.6z"/>
	<path display="inline" fill="#B6B6B6" d="M1312,181.7c1.9,0.2,5.5,0.5,5.4,0.7c-0.1,0.2-4.1,0.6-6.1,0.6c-2.1,0-3.9-0.4-5.9-0.6
		C1307.6,182.1,1309.8,181.9,1312,181.7z"/>
	<path display="inline" fill="#B6B6B6" d="M1484.4,299.8c1.9,0.2,5.5,0.5,5.4,0.7c-0.1,0.2-4.1,0.6-6.1,0.6c-2.1,0-3.9-0.4-5.9-0.6
		C1480,300.2,1482.2,300,1484.4,299.8z"/>
	<path display="inline" fill="#B6B6B6" d="M1490.8,497.8c5.4,0.2,10.8,0.4,16.2,0.6c-4.5-0.3-9-0.6-13.6-0.9
		C1493.5,497.5,1490.8,497.8,1490.8,497.8z"/>
	<path display="inline" fill="#B6B6B6" d="M1292.8,490c1.9,0.2,5.5,0.5,5.4,0.7c-0.1,0.2-4.1,0.6-6.1,0.6c-2.1,0-3.9-0.4-5.9-0.6
		C1288.4,490.4,1290.6,490.2,1292.8,490z"/>
	<path display="inline" fill="#B6B6B6" d="M1292.8,502c1.9,0.2,5.5,0.5,5.4,0.7c-0.1,0.2-4.1,0.6-6.1,0.6c-2.1,0-3.9-0.4-5.9-0.6
		C1288.4,502.4,1290.6,502.2,1292.8,502z"/>
	<path display="inline" fill="#B6B6B6" d="M1273.7,484c1.9,0.2,5.5,0.5,5.4,0.7c-0.1,0.2-4,0.4-6.2,0.6c-1.9-0.2-3.9-0.5-5.8-0.7
		C1269.3,484.4,1271.5,484.2,1273.7,484z"/>
	<path display="inline" fill="#B6B6B6" d="M1522.8,516c1.9,0.2,5.5,0.5,5.4,0.7c-0.1,0.2-4,0.4-6.2,0.6c-1.9-0.2-3.9-0.5-5.8-0.7
		C1518.4,516.4,1520.6,516.2,1522.8,516z"/>
	<path display="inline" fill="#B6B6B6" d="M1247.9,124.3c2.2-0.2,4.5-0.6,6.6-0.6c2.1,0,3.9,0.4,5.9,0.6c-2.2,0.2-4.4,0.4-6.6,0.6
		C1251.8,124.7,1249.8,124.5,1247.9,124.3z"/>
</g>
<g>
	<path fill="#432A23" d="M2613.4,95.7l684.6,0.7l-0.4,367.9l-684.6-0.7L2613.4,95.7 M2585.2,62.6c-2.7,0-4.9,2.2-4.9,4.9l-0.4,424.4
		c0,2.7,2.2,4.9,4.9,4.9l741.1,0.8c0,0,0,0,0,0c2.7,0,4.9-2.2,4.9-4.9l0.4-424.4c0-2.7-2.2-4.9-4.9-4.9L2585.2,62.6
		C2585.2,62.6,2585.2,62.6,2585.2,62.6L2585.2,62.6z"/>
	<g opacity="0.3">
		<path fill="url(#Dark_Wood_Grain_Horizontal)" d="M2613.4,95.7l684.6,0.7l-0.4,367.9l-684.6-0.7L2613.4,95.7 M2585.2,62.6
			c-2.7,0-4.9,2.2-4.9,4.9l-0.4,424.4c0,2.7,2.2,4.9,4.9,4.9l741.1,0.8c0,0,0,0,0,0c2.7,0,4.9-2.2,4.9-4.9l0.4-424.4
			c0-2.7-2.2-4.9-4.9-4.9L2585.2,62.6C2585.2,62.6,2585.2,62.6,2585.2,62.6L2585.2,62.6z"/>
	</g>
</g>
<path fill="none" stroke="#432A23" stroke-miterlimit="10" d="M2259.6,488h-18.7c-4.9,0-8.9-4-8.9-8.9V64.9c0-4.9,4-8.9,8.9-8.9
	h18.7c4.9,0,8.9,4,8.9,8.9v414.2C2268.5,484,2264.5,488,2259.6,488z"/>
<line fill="#FFFFFF" stroke="#000000" stroke-miterlimit="10" x1="2232" y1="56" x2="2295" y2="102"/>
</svg>
