<?xml version="1.0" encoding="utf-8"?>
<!-- Generator: Adobe Illustrator 18.1.1, SVG Export Plug-In . SVG Version: 6.00 Build 0)  -->
<svg version="1.1" id="Layer_1" xmlns="http://www.w3.org/2000/svg" xmlns:xlink="http://www.w3.org/1999/xlink" x="0px" y="0px"
	 viewBox="0 0 960 560" enable-background="new 0 0 960 560" xml:space="preserve">
<g>
	<g>
		
			<image overflow="visible" enable-background="new    " width="12" height="350" xlink:href="BCFE26D21EE1E2E5.jpg"  transform="matrix(1.5135 0 0 1.5135 143.9639 18.2703)">
		</image>
	</g>
</g>
<g>
	<g>
		
			<image overflow="visible" enable-background="new    " width="12" height="350" xlink:href="BCFE26D21EE1E2E7.jpg"  transform="matrix(1.5135 0 0 1.5135 253.6936 18.2703)">
		</image>
	</g>
</g>
<g>
	<g>
		
			<image overflow="visible" enable-background="new    " width="12" height="359" xlink:href="BCFE26D21EE1E2E2.jpg"  transform="matrix(1.5135 0 0 1.4966 363.4234 10.7027)">
		</image>
	</g>
</g>
<g>
	<g>
		
			<image overflow="visible" enable-background="new    " width="12" height="350" xlink:href="BCFE26D21EE1E2E3.jpg"  transform="matrix(1.5135 0 0 1.5135 473.1531 18.2703)">
		</image>
	</g>
</g>
<g>
	<g>
		
			<image overflow="visible" enable-background="new    " width="12" height="355" xlink:href="BCFE26D21EE1E2ED.jpg"  transform="matrix(1.5135 0 0 1.5135 582.8829 10.7027)">
		</image>
	</g>
</g>
<g>
	<g>
		
			<image overflow="visible" enable-background="new    " width="12" height="355" xlink:href="BCFE26D21EE1E2EF.jpg"  transform="matrix(1.5135 0 0 1.5135 692.6126 10.7027)">
		</image>
	</g>
</g>
<g>
	<g>
		
			<image overflow="visible" enable-background="new    " width="12" height="350" xlink:href="BCFE26D21EE1E2E0.jpg"  transform="matrix(1.5135 0 0 1.5135 802.3423 18.2703)">
		</image>
	</g>
</g>
<g>
	<path fill="none" stroke="#000000" stroke-width="20" stroke-miterlimit="10" d="M927.7,544.9H32.3c-1.8,0-3.3-1.5-3.3-3.3V18.5
		c0-1.8,1.5-3.3,3.3-3.3h895.5c1.8,0,3.3,1.5,3.3,3.3v523.2C931,543.4,929.5,544.9,927.7,544.9z"/>
	<path fill="none" stroke="#000000" stroke-width="20" stroke-miterlimit="10" d="M29,219.5H931H29z"/>
</g>
</svg>
